<?xml version="1.0" encoding="UTF-8"?>
<svg id="Layer_2" data-name="Layer 2" xmlns="http://www.w3.org/2000/svg" viewBox="0 0 151.46 136.09">
  <defs>
    <style>
      .cls-1 {
        fill: #65e068;
      }

      .cls-1, .cls-2 {
        stroke: #595959;
        stroke-miterlimit: 10;
      }

      .cls-2 {
        fill: #39b54a;
      }
    </style>
  </defs>
  <g id="Layer_1-2" data-name="Layer 1">
    <g>
      <path class="cls-1" d="m133.19,68.41c-1.52-12.34-10.13-26.11-20.52-32.11-3.91-2.26-7.67-3.18-10.93-2.75-4.93-12.43-13.84-23.54-23.75-29.26-7.67-4.43-14.63-4.85-19.68-1.92l-31.96,18.57c3.66-2.13,8.33-2.49,13.54-.84-.46.18-.9.4-1.33.64L6.59,39.32c3.08-1.79,7.12-1.96,11.57-.25l27.88-16.2c9.91,5.73,18.8,16.83,23.73,29.25,3.26-.44,7.02.49,10.93,2.75,10.39,6,19,19.77,20.52,32.11,9.96,7.54,17.8,22.01,17.77,33.95-.02,6.49-2.35,11.05-6.08,13.22l31.96-18.57c3.73-2.17,6.06-6.73,6.08-13.22.03-11.94-7.81-26.41-17.77-33.95Z"/>
      <path class="cls-2" d="m46.02,22.86c9.91,5.72,18.82,16.83,23.75,29.26,3.26-.44,7.02.49,10.93,2.75,10.39,6,19,19.77,20.52,32.11,9.96,7.54,17.8,22.01,17.77,33.95-.04,13.2-9.64,18.41-21.13,11.78L21.5,88.62C10.01,81.98.46,65.72.5,52.52c.03-11.84,7.81-17.22,17.66-13.45.05-17.93,12.55-25.05,27.86-16.21Z"/>
    </g>
  </g>
</svg>