<?xml version="1.0" encoding="UTF-8"?>
<svg id="Layer_2" data-name="Layer 2" xmlns="http://www.w3.org/2000/svg" viewBox="0 0 169.14 327.99">
  <defs>
    <style>
      .cls-1 {
        fill: #262626;
      }
    </style>
  </defs>
  <g id="Layer_1-2" data-name="Layer 1">
    <path class="cls-1" d="m79.02,319.64c-6.03-5.44-12.06-10.89-18.09-16.33-1.49-1.34-2.98-2.69-4.47-4.03,52.58-.3,101.42-41.11,111.15-92.89,4.36-23.22-.26-52.33-18.37-68.78,2.95-13.81,1.5-28.67-4.18-42.31-12.95-31.13-44.18-49.2-76.54-53.71-.73-.1-1.46-.19-2.2-.28-3.33-7.86-8.08-15.15-13.59-21.76-5.51-6.62-11.79-12.53-18.28-18.17-4.96-4.3-12.69,2.57-7.66,6.94,10.26,8.91,20.99,19.74,27.67,32.1-11.82-.27-23.86,1.47-34.08,7.2C8.44,54.29-.69,67.24.04,81.32c1.43,27.58,38.06,35.62,56.59,19.24,10.87-9.61,15.39-24.68,14.6-38.85-.18-3.23-.65-6.4-1.35-9.49,23.65,3.85,46.54,15.46,59.79,35.95,8.31,12.85,12.32,28.22,10.39,42.9-.69-.38-1.39-.75-2.11-1.1-14.72-7.11-33.25-5.35-48.41-.39-13.47,4.42-26.74,15-26.46,30.51.27,14.49,13.09,23.22,26.32,25.08,13.96,1.96,28.31-3.85,38.91-12.68,7.95-6.63,13.74-14.76,17.45-23.67,12.94,14.93,15.28,38.52,11.5,57.09-9.45,46.45-54.1,83.26-101.51,83.05,12.78-9.04,25.55-18.08,38.33-27.12,5.41-3.83-1.56-11.47-6.94-7.66-8.67,6.13-17.33,12.26-26,18.39-3.71,2.63-7.43,5.26-11.14,7.88-3.45,2.44-8.64,4.87-11.13,8.41-4.92,6.99,5.13,13.03,9.47,16.94,7.67,6.93,15.35,13.86,23.02,20.78,4.89,4.41,12.61-2.47,7.66-6.94Zm-19.28-244.04c-2.8,11.06-10.35,20.97-22.09,22.95-9,1.52-20.01-1.51-24.95-9.7-6.1-10.12.12-23,8.59-29.56,10.47-8.12,24.88-9.11,37.6-8.31.03,0,.06,0,.08,0,2.39,7.74,2.96,15.97.77,24.62Zm71.48,78.49c-6.54,9.46-16.32,17.08-27.57,19.92-9.81,2.47-25.45,1.37-29.52-9.92-5.1-14.16,11.94-23.26,22.9-25.91,12.91-3.13,27.86-4.58,39.63,2.8.31.2.61.41.91.61-1.51,4.34-3.6,8.54-6.34,12.51Z"/>
  </g>
</svg>