<?xml version="1.0" encoding="iso-8859-1"?>
<!-- Generator: Adobe Illustrator 27.1.0, SVG Export Plug-In . SVG Version: 6.00 Build 0)  -->
<svg version="1.1" id="Layer_1" xmlns="http://www.w3.org/2000/svg" xmlns:xlink="http://www.w3.org/1999/xlink" x="0px" y="0px"
	 viewBox="0 0 24 24" enable-background="new 0 0 24 24" xml:space="preserve">
<g>
	<g>
		<path d="M4.9,22c-0.47,0-0.88-0.17-1.23-0.52c-0.35-0.35-0.52-0.75-0.52-1.23V6.7H4.9v13.55h11.08V22H4.9z M7.99,18.93
			c-0.49,0-0.9-0.17-1.25-0.52c-0.35-0.35-0.52-0.76-0.52-1.25V3.74c0-0.47,0.17-0.88,0.52-1.23S7.51,2,7.99,2h7.55l5.3,5.3v9.87
			c0,0.49-0.17,0.9-0.52,1.25s-0.75,0.52-1.23,0.52H7.99z M14.64,8.11h4.46l-4.46-4.37V8.11z"/>
	</g>
</g>
</svg>
