<?xml version="1.0" encoding="utf-8"?>
<!-- Generator: Adobe Illustrator 27.1.0, SVG Export Plug-In . SVG Version: 6.00 Build 0)  -->
<svg version="1.1" id="Layer_1" xmlns="http://www.w3.org/2000/svg" xmlns:xlink="http://www.w3.org/1999/xlink" x="0px" y="0px"
	 viewBox="95 240 780 425" enable-background="new 0 0 1193.98 922.65" xml:space="preserve">
<g>
	<linearGradient id="SVGID_1_" gradientUnits="userSpaceOnUse" x1="271.6663" y1="415.6045" x2="1154.395" y2="415.6045">
		<stop  offset="0" style="stop-color:#8895E0"/>
		<stop  offset="0.5" style="stop-color:#DDE0F2"/>
		<stop  offset="0.8187" style="stop-color:#E5E7F5"/>
		<stop  offset="0.9822" style="stop-color:#E5E7F5;stop-opacity:0"/>
	</linearGradient>
	<path fill="url(#SVGID_1_)" d="M583.76,641.32c-26.26,0-50.09-9.48-67.12-26.7c-15.97-16.15-24.84-37.8-24.96-60.95l0-0.71
		c-0.07-12.59-0.66-25.14-1.67-39.17c-1.06-14.89-2.34-18.65-5.8-20.82c-3.4-1.33-8.58-1.33-11.02,3.89
		c-2.4,5.13-2.33,15.47-3.48,24.52c-1.51,11.9-5.14,23.56-11.23,33.65c-6.3,10.45-16.29,23.26-37.76,29.59
		c-14.13,4.16-32.51,2.91-61.58,3.53c-32.58,0.7-65.93,0.45-66.32,0.47L272.34,589l-0.68-62.29c0,0,55.36,0.15,91.31,0.15
		c49.17,0,45.18-28.43,56.15-57.3c8.43-22.19,28.55-34.38,54.29-36.91c20.8-2.05,38.32,2.97,52.43,14.48
		c28.88,23.55,25.42,46.82,27.77,84.8c1.63,26.26,9.37,47.98,30.13,47.98c0,0,0.01,0,0.01,0c10.96,0,15.54-3.22,18.04-5.64
		c8.06-7.83,9.52-26.14,11.16-49.77c1.99-28.68-2.39-168.6,2.92-195.66c3.12-15.87,12.51-30.51,26.44-41.21
		c13.65-10.48,30.47-16.26,47.36-16.26c0.01,0,0.02,0,0.03,0c24.65,0,43.62,7.97,57.72,22.42c18.06,18.49,19.24,36.24,20.72,68.5
		c0.99,21.56-1.18,66.29-0.3,85.23c0.28,6.05-1.54,19.6,9.77,25.75c13.61,7.4,59.42,6.21,67.17,6.21
		c13.66,0,309.58-0.55,309.58-0.55l-0.2,56.11c0,0-364.43,2.55-376.18,1.7c-13.18-0.96-37.24-1.26-48.61-6.95
		c-8.29-4.14-18.13-11.76-20.71-30.63c-3.28-23.89-0.57-115.3-0.15-132.13c0.29-11.8,1.25-25.26-1.85-31.89
		c-3.5-7.49-24.86-8.95-28.93,6.36c-1.02,3.83-1.42,12.07-1.43,17.51c-0.05,16.6-1.42,123.41,0.39,162.77
		c0.84,18.39-0.6,35.12-4.3,49.75c-4.76,18.83-13.27,34.29-25.28,45.96c-16.27,15.8-37.58,23.81-63.35,23.82l0,0
		C583.78,641.32,583.77,641.32,583.76,641.32z M483.24,189.89L483.24,189.89L483.24,189.89z"/>
	<path fill="#293FE6" d="M530.77,451.59c-9.17-7.92-39.77-13.57-55.26,26.71c-4.44,11.54-3.83,24.28-3.83,24.28
		s1.51-13.73,12.52-9.61c2.4,0.9,4.38,6.26,4.92,10.22c0.36,2.66,1.19,13.23,1.77,21.26c1.44,20.07,0.26,23.56,1.48,40.84
		c1.16,16.36,14.59,45.38,36.69,59.48c11.03,7.04,35.21,23.23,81.82,13.02c0,0-31.81,1.78-47.05-36.84
		c-9.07-22.98-9.03-39.28-9.91-58.59c0,0-0.52-13.09-1.04-23.53c-0.54-10.94-1.06-34.38-6.47-46.16
		C542.27,463.65,537.92,457.77,530.77,451.59z"/>
	<path fill="#293FE6" d="M735.02,532.15c9.24,3.24,20.36,3.68,35.1,4.33c8.95,0.39,33.46,0.67,38.51,0.55
		c0,0-18.86,1.33-31.74-21.31c-10.63-18.7-8.73-48.48-8.88-55.04c-0.44-19.53,0.12-50.61,0.22-61.48
		c0.3-30.48-0.55-36.54-1.85-62.07c-1.04-20.27-9.91-33.59-18.94-43.35c-6.14-6.64-22.21-19.35-42.05-22.18
		c-19.55-2.79-37.45,2.96-37.45,2.96c19.97-0.31,30.83,25.43,34.39,33.87c2.36,5.6,5.28,19.29,6.32,41.79
		c0.25,5.44-0.49,36.64-0.65,46.37c0,0-0.49,36.48-0.65,52.85c-0.15,14.79-0.29,43.21,1.93,53.27
		C711.79,514.07,718.16,526.24,735.02,532.15z"/>
	<g>
		<defs>
			<rect id="SVGID_00000024685084802834246510000002676470792293158028_" x="231.7" y="245.41" width="149.5" height="198.63"/>
		</defs>
		<clipPath id="SVGID_00000100357168317938090720000011758525626004106115_">
			<use xlink:href="#SVGID_00000024685084802834246510000002676470792293158028_"  overflow="visible"/>
		</clipPath>
		<g clip-path="url(#SVGID_00000100357168317938090720000011758525626004106115_)">
			<path fill="#263238" d="M289.88,275.21c-5.48,13.06-22.66,39.58-1.65,43.35c21.01,3.77,29.42-2.43,31.12-10.83
				C321.05,299.34,312.77,260.33,289.88,275.21z"/>
			<path fill="#263238" d="M268.82,375.34c0.94-1.35,2.04-2.95,3.38-5.43c3.84-8.22,4.87-7.22,6.49-15.9
				c4.28-23.01,10.17-30.84,10.17-30.84l17.95,3.1l9.9,14.82c0,0-17.29,22.37-26.23,40.05c-1.72,3.4-3.31,5.73-5.26,7.72
				c-3.22,3.29-8.18,4.14-12.31,2.13C267.03,388.12,265.09,380.7,268.82,375.34L268.82,375.34z"/>
			<path fill="#FF8B7B" d="M268.58,378.12c3.01-2.4,9.52-0.84,13.19,3.82c3.67,4.66,0.81,7.63,0.81,7.63
				c-16.74,16.5-25.82,21.76-31.15,29.78l-8.09-5.47C252.12,401.45,254.61,389.25,268.58,378.12z"/>
			<path fill="#E0E0E0" d="M242.09,422.47c2.6,1.89,6.2,1.43,8.23-1.06c6.53-8.02,16.24-14.97,17.29-16.03
				c2.2-2.23-12.69-12.38-13.42-10.89c-0.92,1.87-7.95,11.62-13.59,19.59c-1.89,2.67-1.29,6.37,1.35,8.3
				C242,422.41,242.05,422.44,242.09,422.47L242.09,422.47z"/>
			<path fill="#FF8B7B" d="M317.33,282.49c2.77-0.21,5.47-0.51,8.2-0.83c2.72-0.33,5.45-0.69,8.17-1.11
				c2.72-0.41,5.45-0.88,8.2-1.43c1.37-0.28,2.76-0.55,4.17-0.9c0.7-0.16,1.43-0.38,2.15-0.56c0.72-0.19,1.53-0.46,2.27-0.7
				l0.14-0.04c0.19-0.05,0.38-0.14,0.54-0.23c2.14-1.15,4.08-2.38,6-3.63c1.92-1.24,3.76-2.56,5.6-3.87
				c1.83-1.33,3.62-2.69,5.38-4.09c1.76-1.41,3.5-2.82,5.19-4.35c1.16-1.04,1.25-2.82,0.21-3.97c-0.85-0.94-2.18-1.18-3.27-0.67
				l-0.03,0.01c-2,0.93-4,1.93-5.99,2.9l-5.92,2.97c-1.96,1-3.93,1.96-5.86,2.92c-1.94,0.95-3.88,1.87-5.75,2.67l0.68-0.27
				c-0.56,0.12-1.05,0.25-1.66,0.36c-0.61,0.11-1.19,0.23-1.83,0.33l-1.9,0.3l-1.94,0.28c-2.61,0.34-5.24,0.66-7.89,0.97l-7.98,0.88
				l-7.98,0.9c-3.09,0.35-5.3,3.13-4.95,6.21c0.34,3.01,3.01,5.2,6.01,4.97h0.02V282.49z"/>
			<path fill="#407BFF" d="M311.66,270.61c4.43-4.79,13.64-3.73,20.99-2.41c3.28,4-0.22,15.9-0.22,15.9
				c-2.37,0.19-8.44,2.66-14.46,0.32C309.17,281,309.26,273.21,311.66,270.61L311.66,270.61z"/>
			<path fill="#FF8B7B" d="M368.48,257.64l3.8-5.81l5.42,6.32c0,0-4.08,4.85-7.01,3.1L368.48,257.64L368.48,257.64z"/>
			<path fill="#FF8B7B" d="M379.32,250.3l1.53,2.54c0.61,1.01,0.39,2.31-0.51,3.08l-2.65,2.25l-5.42-6.32l3.71-2.33
				C377.12,248.79,378.63,249.14,379.32,250.3L379.32,250.3z"/>
			<path fill="#263238" d="M297.7,326.35c0,0,33.79-6.5,52.01-14.32c3.49-1.5,6.21-2.27,8.98-2.55c4.58-0.46,8.96,2.06,10.83,6.26
				c2.66,5.96-0.62,12.89-6.92,14.61c-1.58,0.43-3.46,0.96-6.08,2c-8.22,3.84-15.95,6.92-23.26,11.87
				c-0.68,0.46-1.33,0.96-2.02,1.39c-11.66,7.09-24.49,12.83-34.86,5.86L297.7,326.35L297.7,326.35z"/>
			<path fill="#407BFF" d="M283.19,279.79c-0.31,15.16,2.63,36,3.93,45.36c0.36,2.59,2.4,4.66,5,4.98
				c17.77,2.12,29.33-6.1,32.8-10.04c-0.23-14.45-0.32-31.27,0.43-42.62c0.28-4.23-2.71-7.95-6.9-8.6
				c-6.57-1.01-15.01-1.46-22.84-1.35C288.83,267.61,283.32,273.02,283.19,279.79L283.19,279.79z"/>
			<path fill="#263238" d="M325.37,291.6c0,0,0.62,5.96,0,7.74c-6.46-3.14-11.25-23.12-10.23-32.77c2.18-0.21,3.12,0.09,3.12,0.09
				S319.55,280.94,325.37,291.6z"/>
			<path fill="#FF8B7B" d="M303.74,263.92c-0.53,3-2.11,5.19-2.93,5.91c0.16,3.16,3.41,9.83,9.15,10.41
				c8.54,0.85,3.52-6.63,3.52-6.63L303.74,263.92L303.74,263.92z"/>
			<path opacity="0.2" enable-background="new    " d="M304.62,264.79l8.85,8.81c0,0,1.51,2.23,1.46,4.13
				c-3.46,0.62-7.19-0.7-9.23-4.28C304.13,270.67,304.08,268.09,304.62,264.79L304.62,264.79z"/>
			<path fill="#FF8B7B" d="M304.73,256.2c-1.38,6.58-2.52,10.36-0.12,14.58c3.61,6.35,12.53,5.59,15.87-0.44
				c3.01-5.43,4.75-15.28-0.96-19.6C313.88,246.48,306.11,249.62,304.73,256.2L304.73,256.2z"/>
			<path fill="#263238" d="M309.09,253.84c1.88,2.18,0.3,4.89-1.46,5.1c2.18,2,0.67,3.8-3.61,3.08c-2.65-3.42-3.22-5.99-1.03-8.86
				C305.82,250.05,308.7,252.68,309.09,253.84L309.09,253.84z"/>
			<path fill="#FF8B7B" d="M300.02,262.61c0.32,1.8,1.41,3.25,2.61,4.07c1.8,1.22,3.37-0.31,3.41-2.45
				c0.05-1.93-0.83-4.89-2.91-5.26C301.08,258.62,299.65,260.56,300.02,262.61z"/>
			<path fill="#FF5652" d="M319.02,262.06c0,0,0.25,3.25,1.29,5.04c-2.29,0.48-2.8-0.14-2.8-0.14L319.02,262.06z"/>
			<path fill="#FF8B7B" d="M288.92,271.26c-3.96,2.25-7.99,4.61-11.96,6.84c-1.99,1.11-3.98,2.21-5.94,3.21
				c-0.98,0.5-1.96,0.96-2.87,1.38c-0.46,0.21-0.9,0.4-1.31,0.55c-0.19,0.07-0.4,0.15-0.54,0.19l-0.35,0.12
				c-0.14,0.05-0.07,0.01,0.34,0.15c0.4,0.11,1.03,0.62,1.22,0.98c0.2,0.38,0.12,0.43,0.08,0.29c-0.06-0.14-0.12-0.44-0.14-0.81
				c-0.05-0.74-0.01-1.71,0.11-2.7c0.12-1,0.31-2.05,0.52-3.11c0.88-4.26,2.25-8.73,3.6-13.07l0.02-0.08
				c0.46-1.48-0.37-3.05-1.85-3.51c-1.22-0.38-2.52,0.12-3.18,1.15c-1.36,2.09-2.52,4.18-3.65,6.36c-1.11,2.18-2.13,4.41-3.02,6.79
				c-0.45,1.19-0.84,2.42-1.19,3.72c-0.34,1.31-0.64,2.67-0.74,4.28c-0.05,0.81-0.05,1.68,0.1,2.7c0.17,1.01,0.44,2.21,1.32,3.56
				c0.42,0.66,1.05,1.31,1.74,1.85c0.71,0.52,1.53,0.93,2.28,1.14c1.54,0.46,2.8,0.42,3.83,0.31c0.5-0.06,0.99-0.14,1.38-0.23
				c0.43-0.08,0.78-0.18,1.16-0.28c0.73-0.2,1.38-0.41,2.02-0.62c1.27-0.43,2.45-0.91,3.61-1.39c2.31-0.97,4.51-2.01,6.67-3.1
				c4.33-2.18,8.47-4.47,12.57-7.05c2.63-1.65,3.42-5.12,1.77-7.74c-1.61-2.56-4.93-3.38-7.53-1.91L288.92,271.26L288.92,271.26z"/>
			<path fill="#407BFF" d="M301.49,278.38c-3.05,5.77-11.06,9.96-20.5,13.91c-1.22-5.94-6.47-13.44-6.47-13.44s9.34-8.1,17.31-10.7
				C300.13,265.45,303.16,275.25,301.49,278.38z"/>
			<path fill="#FF8B7B" d="M266.4,263.25l2.26-4.07l5.86,5.93c0,0-1.25,1.71-2.88,2.86c-1.63,1.14-3.87,0.76-5.03-0.85
				C265.8,265.98,265.72,264.48,266.4,263.25L266.4,263.25z"/>
			<path fill="#FF8B7B" d="M275.59,257.16l1.7,2.42c0.68,0.96,0.55,2.28-0.29,3.1l-2.48,2.43l-5.86-5.93l3.53-2.59
				C273.29,255.8,274.82,256.05,275.59,257.16z"/>
			<path fill="#FF8B7B" d="M337.69,367.39c4.95-14.39,4.57-28.33,14.87-47.71c1.81-3.4,5.49-5.36,9.33-4.95
				c6.73,0.7,10.57,8.04,7.28,13.96c-11.42,20.53-19.3,32.5-22.17,41.69L337.69,367.39z"/>
			<path fill="#E0E0E0" d="M339.56,376.7c3.07,0.93,6.33-0.68,7.43-3.7c3.54-9.72,11.62-23.59,12.27-24.94
				c1.34-2.82-15.67-6.45-15.87-4.8c-0.25,2.06-5.27,16.63-7.98,26c-0.91,3.14,0.87,6.44,4,7.39
				C339.46,376.66,339.52,376.68,339.56,376.7L339.56,376.7z"/>
			<path fill="#263238" d="M337.92,368.35c-2.05-0.81-4.35,0.39-4.95,2.51l-2,7.1c-0.39,0.74,0,1.7,0.79,2.01
				c4.28,1.68,3.78,1.21,7.94,2.77c4.87,1.83,5.63,2.25,11.34,4.4c3.46,1.3,4.41-1.48,4.16-3.07c-0.66-4.32-4.31-7.39-5.59-10.15
				c0,0,3.63-2.6,1.52-4.48c-2.11-1.87-8.05-3.4-9.8-1.94c-0.78,0.65-1.16,2.09-1.16,2.09S339.22,368.85,337.92,368.35
				L337.92,368.35z"/>
			<path fill="#E0E0E0" d="M354.16,386.94c0.96,0.2-1.49,2.31-1.49,2.31s-9.15-1.64-14.56-4.2c-7.28-3.43-7.67-5.09-7.67-5.09
				c-0.07-0.77,0.14-1.72,0.72-2.64C330.64,377.89,342.12,384.37,354.16,386.94L354.16,386.94z"/>
			<path fill="#263238" d="M242.08,414.78c-0.38-3.24-2.8-0.91-4.26,0.75c0,0-2.42,1.78-3.55,2.73c-1.12,0.95-0.87,2.66-0.51,4.29
				c0.57,2.65,0.36,4.58,1.25,8.93c1.04,5.09,1.66,8.37,7.03,11.25c3.25,1.74,5.9-0.96,6.38-2.49c1.29-4.18,3.01-11.67,3.06-14.71
				c0,0,4.91,0.84,4.31-1.91c-0.6-2.75-4.5-7.48-6.79-7.34c-1.01,0.06-4.15,1.25-4.15,1.25S242.49,418.24,242.08,414.78z"/>
			<path fill="#E0E0E0" d="M246.5,442.29c0.83,0.51-2.43,1.75-2.43,1.75s-4.56-1.38-8.67-6.1c-1.06-1.22-1.94-3.16-2.35-4.52
				c-0.83-2.75-1.35-12.26-1.35-12.26c0.29-0.71,1.63-2.37,2.57-2.9c-0.48,0.18,0.14,13.57,3.13,17.26
				C240.64,439.51,245.32,441.58,246.5,442.29L246.5,442.29z"/>
			<path fill="#407BFF" d="M325.92,257.31c6.29,1.35,12.55,4.19,2.34,2.89c-10.38-1.32-21.46-5.83-21.46-5.83L325.92,257.31
				L325.92,257.31z"/>
			<path opacity="0.4" fill="#FFFFFF" enable-background="new    " d="M325.92,257.31c6.29,1.35,12.55,4.19,2.34,2.89
				c-10.38-1.32-21.46-5.83-21.46-5.83L325.92,257.31L325.92,257.31z"/>
			<path fill="#407BFF" d="M303,253.15c0,0,13.22,4.71,21.78,4.52c0.81-3.52-0.96-7.67-0.96-7.67s-5.15-4.01-7.96-4.57
				c-0.15-0.03-0.29-0.03-0.44-0.03c-2.44,0.06-7.27,0.87-9.19,1.22c-0.53,0.1-0.99,0.42-1.24,0.9
				C304.34,248.75,303.15,251.23,303,253.15L303,253.15z"/>
			<path fill="#407BFF" d="M273.35,424.89l72.75-45.85l4.55-4.19c3.49-3.21,8.16-2.91,10.43,0.68c2.26,3.59,1.27,9.1-2.22,12.32
				c-3.02,2.78-6.31,5.3-9.8,7.5l-62.25,39.23c-3.49,2.2-7.17,4.08-10.99,5.6c-4.41,1.76-9.82,0.29-12.09-3.31
				c-2.26-3.59-0.53-7.93,3.88-9.69L273.35,424.89z"/>
			<path opacity="0.3" enable-background="new    " d="M273.35,424.89l72.75-45.85l4.55-4.19c3.49-3.21,8.16-2.91,10.43,0.68
				c2.26,3.59,1.27,9.1-2.22,12.32c-3.02,2.78-6.31,5.3-9.8,7.5l-62.25,39.23c-3.49,2.2-7.17,4.08-10.99,5.6
				c-4.41,1.76-9.82,0.29-12.09-3.31c-2.26-3.59-0.53-7.93,3.88-9.69L273.35,424.89z"/>
			<path fill="#407BFF" d="M273.85,425.69l72.75-45.85l4.49-4.28c3.45-3.29,8.26-2.75,10.75,1.2c2.49,3.94,1.72,9.81-1.73,13.09
				c-2.98,2.85-6.25,5.39-9.74,7.59l-62.25,39.23c-3.49,2.2-7.19,4.05-11.05,5.51c-4.45,1.69-10.08-0.14-12.57-4.08
				c-2.49-3.94-0.9-8.52,3.55-10.21L273.85,425.69z"/>
			<path fill="#407BFF" d="M343.92,401.51l2.49,3.92c0.32,0.51,0.97,0.8,1.87,0.77c1.82-0.07,3.99-1.44,4.84-3.05
				c0.43-0.81,0.44-1.54,0.12-2.05l-2.49-3.92c0.32,0.51,0.31,1.23-0.12,2.05c-0.86,1.62-3.02,2.99-4.84,3.05
				C344.89,402.31,344.24,402.01,343.92,401.51z"/>
			<path opacity="0.4" enable-background="new    " d="M343.92,401.51l2.49,3.92c0.32,0.51,0.97,0.8,1.87,0.77
				c1.82-0.07,3.99-1.44,4.84-3.05c0.43-0.81,0.44-1.54,0.12-2.05l-2.49-3.92c0.32,0.51,0.31,1.23-0.12,2.05
				c-0.86,1.62-3.02,2.99-4.84,3.05C344.89,402.31,344.24,402.01,343.92,401.51z"/>
			<path fill="#407BFF" d="M344.04,399.46c-0.86,1.62-0.07,2.88,1.75,2.81c1.82-0.07,3.99-1.43,4.84-3.05
				c0.86-1.62,0.07-2.88-1.75-2.81C347.06,396.48,344.89,397.85,344.04,399.46L344.04,399.46z"/>
			<path opacity="0.2" enable-background="new    " d="M344.04,399.46c-0.86,1.62-0.07,2.88,1.75,2.81
				c1.82-0.07,3.99-1.43,4.84-3.05c0.86-1.62,0.07-2.88-1.75-2.81C347.06,396.48,344.89,397.85,344.04,399.46L344.04,399.46z"/>
			<path fill="#FFFFFF" d="M347.7,399.91c0.57-0.36,0.75-1.12,0.38-1.7l-4.81-7.61c-0.36-0.57-1.12-0.74-1.7-0.38
				c-0.57,0.36-0.75,1.12-0.38,1.69l4.81,7.61C346.36,400.1,347.12,400.27,347.7,399.91z"/>
			<path fill="#407BFF" d="M337.8,391.81l2.49,3.92c0.32,0.51,0.97,0.8,1.87,0.77c1.82-0.07,3.99-1.44,4.84-3.05
				c0.43-0.81,0.45-1.54,0.12-2.05l-2.49-3.92c0.32,0.51,0.31,1.23-0.12,2.05c-0.86,1.62-3.02,2.99-4.84,3.05
				C338.77,392.61,338.12,392.32,337.8,391.81z"/>
			<path opacity="0.4" enable-background="new    " d="M337.8,391.81l2.49,3.92c0.32,0.51,0.97,0.8,1.87,0.77
				c1.82-0.07,3.99-1.44,4.84-3.05c0.43-0.81,0.45-1.54,0.12-2.05l-2.49-3.92c0.32,0.51,0.31,1.23-0.12,2.05
				c-0.86,1.62-3.02,2.99-4.84,3.05C338.77,392.61,338.12,392.32,337.8,391.81z"/>
			<path fill="#407BFF" d="M337.92,389.77c-0.86,1.62-0.07,2.88,1.75,2.81c1.82-0.07,3.99-1.43,4.84-3.05
				c0.86-1.62,0.07-2.88-1.75-2.81C340.95,386.79,338.78,388.15,337.92,389.77L337.92,389.77z"/>
			<path opacity="0.2" enable-background="new    " d="M337.92,389.77c-0.86,1.62-0.07,2.88,1.75,2.81
				c1.82-0.07,3.99-1.43,4.84-3.05c0.86-1.62,0.07-2.88-1.75-2.81C340.95,386.79,338.78,388.15,337.92,389.77L337.92,389.77z"/>
			<path fill="#407BFF" d="M287.24,437.23l2.49,3.92c0.32,0.51,0.97,0.8,1.87,0.77c1.82-0.07,3.99-1.43,4.84-3.05
				c0.43-0.81,0.44-1.54,0.12-2.05l-2.49-3.92c0.32,0.51,0.31,1.23-0.12,2.05c-0.86,1.62-3.02,2.99-4.84,3.05
				C288.22,438.03,287.57,437.73,287.24,437.23z"/>
			<path opacity="0.4" enable-background="new    " d="M287.24,437.23l2.49,3.92c0.32,0.51,0.97,0.8,1.87,0.77
				c1.82-0.07,3.99-1.43,4.84-3.05c0.43-0.81,0.44-1.54,0.12-2.05l-2.49-3.92c0.32,0.51,0.31,1.23-0.12,2.05
				c-0.86,1.62-3.02,2.99-4.84,3.05C288.22,438.03,287.57,437.73,287.24,437.23z"/>
			<path fill="#407BFF" d="M287.36,435.18c-0.86,1.62-0.07,2.88,1.75,2.81c1.82-0.07,3.99-1.44,4.84-3.05
				c0.86-1.61,0.07-2.88-1.75-2.81C290.38,432.2,288.22,433.57,287.36,435.18L287.36,435.18z"/>
			<path opacity="0.2" enable-background="new    " d="M287.36,435.18c-0.86,1.62-0.07,2.88,1.75,2.81
				c1.82-0.07,3.99-1.44,4.84-3.05c0.86-1.61,0.07-2.88-1.75-2.81C290.38,432.2,288.22,433.57,287.36,435.18L287.36,435.18z"/>
			<path fill="#FFFFFF" d="M291.02,435.63c0.57-0.36,0.75-1.12,0.38-1.69l-4.81-7.61c-0.36-0.57-1.12-0.74-1.7-0.38
				c-0.57,0.36-0.75,1.12-0.38,1.7l4.81,7.61C289.69,435.82,290.45,435.99,291.02,435.63z"/>
			<path fill="#407BFF" d="M281.12,427.53l2.49,3.92c0.32,0.51,0.97,0.8,1.87,0.77c1.82-0.07,3.99-1.43,4.84-3.05
				c0.43-0.81,0.44-1.54,0.12-2.05l-2.49-3.92c0.32,0.51,0.31,1.23-0.12,2.05c-0.86,1.62-3.02,2.99-4.84,3.05
				C282.09,428.33,281.44,428.04,281.12,427.53z"/>
			<path opacity="0.4" enable-background="new    " d="M281.12,427.53l2.49,3.92c0.32,0.51,0.97,0.8,1.87,0.77
				c1.82-0.07,3.99-1.43,4.84-3.05c0.43-0.81,0.44-1.54,0.12-2.05l-2.49-3.92c0.32,0.51,0.31,1.23-0.12,2.05
				c-0.86,1.62-3.02,2.99-4.84,3.05C282.09,428.33,281.44,428.04,281.12,427.53z"/>
			<path fill="#407BFF" d="M281.24,425.49c-0.86,1.62-0.07,2.88,1.75,2.81c1.82-0.07,3.99-1.44,4.84-3.05
				c0.86-1.62,0.07-2.88-1.75-2.81C284.26,422.51,282.09,423.87,281.24,425.49L281.24,425.49z"/>
			<path opacity="0.2" enable-background="new    " d="M281.24,425.49c-0.86,1.62-0.07,2.88,1.75,2.81
				c1.82-0.07,3.99-1.44,4.84-3.05c0.86-1.62,0.07-2.88-1.75-2.81C284.26,422.51,282.09,423.87,281.24,425.49L281.24,425.49z"/>
			<path fill="#263238" d="M291.7,267.82c3.57,11.91,2.74,23.63-7.66,35.61c-0.32,2.68,0.77,6.57,0.77,6.57s13.24-6.78,15.14-24.87
				c0.93-8.92-3.79-17.93-3.79-17.93C295.27,266.76,292.33,267.01,291.7,267.82L291.7,267.82z"/>
		</g>
	</g>
	<g>
		<defs>
			<rect id="SVGID_00000118362442005271434690000000644518335780212413_" x="463.41" y="302.37" width="102.33" height="103.16"/>
		</defs>
		<clipPath id="SVGID_00000061444830644722185550000017800665870160935097_">
			<use xlink:href="#SVGID_00000118362442005271434690000000644518335780212413_"  overflow="visible"/>
		</clipPath>
		<g clip-path="url(#SVGID_00000061444830644722185550000017800665870160935097_)">
			<path d="M551.32,362.28h-58.14c-0.39,0-0.69-0.31-0.69-0.7v-58.52c0-0.39,0.31-0.7,0.69-0.7h58.15c0.39,0,0.69,0.31,0.69,0.7
				v58.53C552.02,361.98,551.71,362.29,551.32,362.28L551.32,362.28z M493.87,360.89h56.76v-57.12h-56.75L493.87,360.89
				L493.87,360.89z"/>
			<path d="M522.25,391.55h-58.15c-0.39,0-0.69-0.31-0.69-0.7v-58.52c0-0.39,0.31-0.7,0.69-0.7h58.15c0.38,0,0.69,0.31,0.69,0.7
				v58.53C522.95,391.24,522.64,391.55,522.25,391.55L522.25,391.55z M464.8,390.15h56.76v-57.12H464.8V390.15L464.8,390.15z"/>
			<path fill="#231F20" d="M527.94,367.48l12.73,32.6l6.17-6.21l11.6,11.67l7.31-7.35l-11.59-11.67l6.17-6.22L527.94,367.48z"/>
		</g>
	</g>
	<g>
		<defs>
			<rect id="SVGID_00000005965560107973657460000000315552363719760533_" x="311.74" y="565.74" width="93.47" height="94.49"/>
		</defs>
		<clipPath id="SVGID_00000116915671885300736100000008750482836785719176_">
			<use xlink:href="#SVGID_00000005965560107973657460000000315552363719760533_"  overflow="visible"/>
		</clipPath>
		<g clip-path="url(#SVGID_00000116915671885300736100000008750482836785719176_)">
			<path fill="#293FE6" d="M331.37,643.55l-2.19,6.5c2.57,2.04,5.34,3.79,8.26,5.24l4.95-4.75l5.85,2.33l6.25,0.77l2.07,6.55
				c3.23,0.13,6.5-0.06,9.76-0.62l1.21-6.77l6.11-1.55l5.51-3.05l5.52,4.09c2.75-1.83,5.27-3.93,7.53-6.24l-2.99-6.19l4.02-4.84
				l2.66-5.71l6.87,0.06c1.13-3.06,1.94-6.23,2.43-9.47l-6.05-3.24l0.4-6.28l-1.2-6.19l5.6-3.99c-0.44-1.55-0.96-3.1-1.57-4.63
				c-0.61-1.54-1.29-3.02-2.04-4.45l-6.81,0.93l-3.37-5.32l-4.6-4.29l2.19-6.51c-2.57-2.03-5.35-3.79-8.26-5.24l-4.96,4.75
				l-5.85-2.34l-6.25-0.77l-2.07-6.54c-3.22-0.13-6.5,0.06-9.76,0.62l-1.21,6.76l-6.1,1.56l-5.51,3.05l-5.52-4.09
				c-2.76,1.83-5.27,3.93-7.53,6.24l2.99,6.18l-4.02,4.85l-2.66,5.71l-6.87-0.06c-1.13,3.06-1.95,6.23-2.43,9.47l6.04,3.25
				l-0.4,6.28l1.2,6.19l-5.6,3.98c0.44,1.55,0.97,3.11,1.58,4.64c0.6,1.53,1.29,3.02,2.04,4.45l6.81-0.93l3.36,5.32L331.37,643.55
				L331.37,643.55z M335.15,622.24c-5.11-12.88,1.2-27.47,14.08-32.58c12.87-5.11,27.46,1.2,32.57,14.08
				c5.11,12.88-1.19,27.47-14.08,32.58C354.84,641.42,340.25,635.13,335.15,622.24L335.15,622.24z"/>
		</g>
	</g>
	<rect x="242.61" y="559.23" fill="#8996E1" width="29.84" height="29.84"/>
	<rect x="213.02" y="527.27" fill="#8996E1" width="29.84" height="29.84"/>
	<rect x="183.4" y="559.53" fill="#B4BCFF" width="29.84" height="29.84"/>
	<rect x="153.52" y="590.6" fill="#B4BCFF" width="29.84" height="29.84"/>
	<rect x="123.92" y="559.53" fill="#B4BCFF" width="29.84" height="29.84"/>
	<rect x="94.04" y="528.45" fill="#DDE1FF" width="29.84" height="29.84"/>
	<rect x="64.59" y="559.08" fill="#DDE1FF" width="29.84" height="29.84"/>
</g>
</svg>
