<?xml version="1.0" encoding="iso-8859-1"?>
<!-- Generator: Adobe Illustrator 27.1.0, SVG Export Plug-In . SVG Version: 6.00 Build 0)  -->
<svg version="1.1" id="Layer_1" xmlns="http://www.w3.org/2000/svg" xmlns:xlink="http://www.w3.org/1999/xlink" x="0px" y="0px"
	 viewBox="0 0 24 24" enable-background="new 0 0 24 24" xml:space="preserve">
<g opacity="0.4">
	<g>
		<path fill="#FFFFFF" d="M2.42,9.63c0.05-3.64,2.8-6.77,6.35-7.14c3.77-0.4,7.14,2,7.89,5.65c0.39,1.91,0.06,3.71-1,5.36
			c-0.13,0.2-0.14,0.31,0.04,0.48c1.79,1.78,3.58,3.57,5.37,5.35c0.26,0.26,0.48,0.52,0.51,0.9c0.04,0.52-0.22,0.98-0.66,1.19
			c-0.47,0.23-0.98,0.15-1.37-0.23c-0.66-0.64-1.31-1.3-1.96-1.95c-1.21-1.21-2.41-2.41-3.61-3.62c-0.15-0.15-0.24-0.13-0.4-0.03
			c-4.19,2.69-9.65,0.56-10.89-4.25C2.55,10.78,2.51,10.2,2.42,9.63z M9.62,14.38c2.64,0.01,4.78-2.12,4.79-4.75
			c0.01-2.66-2.11-4.8-4.76-4.8C7.01,4.83,4.88,6.95,4.87,9.59C4.86,12.23,6.99,14.37,9.62,14.38z"/>
	</g>
</g>
</svg>
