<?xml version="1.0" encoding="UTF-8"?><svg id="a" xmlns="http://www.w3.org/2000/svg" viewBox="0 0 1155.91 513.45"><defs><style>.b{fill:#293ee6;}</style></defs><path class="b" d="M95.46,369.23c-13.98-5.8-23.61-11.61-28.89-17.41l22.96-37.2c13.98,8.97,31.79,13.99,53.42,15.04,8.71,.27,14.97-1.19,18.8-4.35,3.82-3.17,5.74-6.99,5.74-11.48,0-3.69-1.33-7.13-3.96-10.29-2.64-3.17-6.73-5.67-12.27-7.52l-24.14-7.91c-13.72-4.48-24.6-8.77-32.65-12.86-8.05-4.09-14.64-9.83-19.78-17.22-5.15-7.38-7.72-17.15-7.72-29.28s2.9-23.81,8.71-35.02c5.8-11.21,14.84-20.44,27.11-27.7,12.27-7.25,27.65-11.53,46.11-10.88,15,.52,26.16,2.35,38.2,6.13,11.03,3.47,22.79,8.47,38.89,17.65l-23.64,39.03c-15.3-9.23-33-14.54-49.09-14.54-7.92,0-14.61,1.31-18.58,3.04-5,2.17-7.93,6.4-9.12,10.42-2.31,7.77-.77,14.36,2.93,17.48,6.53,5.51,12.45,6.11,18.9,7.71,4.22,1.05,23.62,5.34,30.73,6.74,15.42,3.04,28.82,10.61,38.07,20.5,9.23,9.89,13.85,23.81,13.85,41.75,0,13.46-3.76,25.27-11.28,35.42-7.52,10.16-17.81,17.94-30.87,23.35-13.06,5.4-27.9,8.11-44.52,8.11-17.95,0-33.91-2.91-47.89-8.71Z"/><path class="b" d="M432.23,378.47l-72.12-92.72-27.21,34.15v58.57h-56.19V59.11h56.19V240.75l69.56-85.68,63.26,.06-70.57,87.32,108.96,136.02h-71.88Z"/><path class="b" d="M655.37,166.16c14.25,6.99,25.33,16.82,33.24,29.48,7.92,12.66,11.87,27.3,11.87,43.93v138.9h-40.04l-19.32-32.05c-6.87,9.5-15.5,17.21-25.92,23.15-10.43,5.94-22.5,8.9-36.21,8.9-22.69,0-40.95-6.26-54.81-18.8-13.85-12.53-20.78-28.95-20.78-49.27,0-13.45,3.82-25.46,11.48-36.01,7.65-10.55,18.46-18.73,32.45-24.54,13.98-5.8,30.09-8.1,48.28-8.71,14.03-.47,26.77-.31,42.74,1.28,0,0,.07-1.38,0-2.86-.53-11.38-5.68-20.11-13.85-26.32-8.18-6.2-19.39-9.3-33.64-9.3-18.47,0-37.1,6.91-50.55,17.2l-23.45-38.17c12.4-9.23,25.79-16.09,40.17-20.58,14.37-4.48,30.93-7.27,49.66-7.27s34.43,4.04,48.68,11.02Zm-28.89,155.53c8.44-8.84,12.66-20.38,12.66-34.63-13.72-2.63-25.59-3.96-35.61-3.96-10.82,0-19.59,2.37-26.32,7.12-6.73,4.75-10.09,11.08-10.09,19s2.57,14.51,7.71,19c5.15,4.49,12.33,6.73,21.57,6.73,11.61,0,21.63-4.41,30.08-13.26Z"/><path class="b" d="M1002.6,120.65c-6.73-6.73-10.09-15.24-10.09-25.53s3.42-19.19,10.29-25.92c6.85-6.73,15.43-10.09,25.72-10.09s18.8,3.36,25.53,10.09c6.73,6.73,10.09,15.37,10.09,25.92s-3.37,18.8-10.09,25.53c-6.73,6.73-15.24,10.09-25.53,10.09s-19.19-3.36-25.92-10.09Zm-4.95,34.49h61.34v223.34h-61.34V155.13Z"/><path class="b" d="M951.77,208.21c-8.84-16.27-20.82-28.95-35.93-38.04-15.12-9.09-31.89-15.03-50.34-15.03-30.17,0-50.89,4.7-65.23,27.86v-.04l-16.93-27.82h-39.24V461.57h56.26v-59.23h-.09v-56.52c20.3,22.81,36.09,27.05,65.23,27.05,18.44,0,35.22-4.61,50.34-13.83,15.11-9.22,27.09-22.16,35.93-38.81,8.83-16.65,13.25-35.48,13.25-56.49s-4.42-39.25-13.25-55.52Zm-62.14,97.43c-9.66,10.57-22.09,15.84-37.29,15.84s-28.34-5.28-37.86-15.84c-8.81-9.75-13.53-22.27-14.2-37.52v-7.7c.67-15.47,5.4-28.09,14.2-37.85,9.53-10.56,22.15-15.84,37.86-15.84s27.63,5.28,37.29,15.84c9.66,10.57,14.49,24.34,14.49,41.34s-4.83,31.17-14.49,41.73Z"/></svg>