<svg xmlns="http://www.w3.org/2000/svg" xmlns:xlink="http://www.w3.org/1999/xlink">
  <defs>
<symbol id="plus" viewBox="0 0 24 24">
	<path d="M19.07,4.93c-3.91-3.91-10.24-3.91-14.14,0s-3.91,10.24,0,14.14s10.24,3.91,14.14,0S22.98,8.83,19.07,4.93z M12.99,17.14
			h-2v-4.15H6.83v-2h4.15V6.84h2v4.15h4.15v2h-4.15L12.99,17.14z"/>
</symbol>
<symbol id="minus" viewBox="0 0 24 24">
<path d="M12,2C6.48,2,2,6.48,2,12s4.48,10,10,10c5.52,0,10-4.48,10-10S17.52,2,12,2z M18,13.03H6V11h12V13.03z"/>
</symbol>
<symbol id="plus2" viewBox="0 0 24 24">
<path d="M10.9,20v-6.9H4V10.9h6.9V4h2.21v6.9H20v2.21h-6.9V20H10.9z"/>
</symbol>
<symbol id="minus2" viewBox="0 0 24 24">
<path d="M4,13.1V10.9h16v2.21H4z"/>
</symbol>
<symbol id="X" viewBox="0 0 24 24">
<path d="M12,2C6.48,2,2,6.48,2,12s4.48,10,10,10s10-4.48,10-10S17.52,2,12,2z M16.33,14.94l-1.41,1.41l-2.94-2.94l-2.94,2.94
			l-1.41-1.41L10.57,12L7.63,9.06l1.41-1.41l2.94,2.94l2.94-2.94l1.41,1.41L13.39,12L16.33,14.94z"/>
</symbol>
<symbol id="no_access" viewBox="0 0 24 24">
<path d="M11.99,22c-1.38,0-2.68-0.26-3.9-0.78c-1.21-0.52-2.27-1.24-3.17-2.15c-0.9-0.91-1.61-1.97-2.14-3.18S2,13.37,2,11.99
			c0-1.37,0.26-2.66,0.78-3.87s1.23-2.27,2.14-3.17S6.88,3.33,8.09,2.8S10.6,2,11.99,2s2.68,0.27,3.9,0.8s2.27,1.25,3.17,2.15
			s1.62,1.96,2.15,3.17c0.53,1.21,0.8,2.51,0.8,3.87c0,1.38-0.26,2.69-0.78,3.91c-0.52,1.22-1.24,2.28-2.15,3.18
			c-0.91,0.9-1.97,1.61-3.18,2.14C14.67,21.74,13.37,22,11.99,22z M11.99,20.09c2.25,0,4.16-0.78,5.73-2.35
			c1.57-1.57,2.35-3.49,2.35-5.75c0-0.92-0.15-1.81-0.46-2.67c-0.31-0.86-0.74-1.64-1.3-2.33L6.97,18.31
			c0.69,0.6,1.47,1.04,2.34,1.34C10.18,19.95,11.07,20.09,11.99,20.09z M5.69,17.01L16.98,5.69c-0.71-0.58-1.49-1.02-2.34-1.31
			s-1.74-0.45-2.65-0.45c-2.25,0-4.16,0.78-5.73,2.34s-2.35,3.47-2.35,5.72c0,0.92,0.16,1.81,0.48,2.67
			C4.71,15.51,5.14,16.3,5.69,17.01z"/>
</symbol>
<symbol id="menu_horizontal" viewBox="0 0 24 24">
<g>
			<path d="M2.62,11.74c0.1-0.27,0.17-0.56,0.31-0.81c0.48-0.81,1.45-1.17,2.35-0.89c0.88,0.28,1.48,1.13,1.44,2.03
				C6.67,13.03,6,13.82,5.08,14.01c-1.12,0.23-2.23-0.51-2.43-1.65c-0.01-0.03-0.02-0.07-0.03-0.1C2.62,12.09,2.62,11.91,2.62,11.74
				z"/>
			<path d="M9.84,11.99c0-1.13,0.93-2.05,2.06-2.04c1.12,0.01,2.04,0.93,2.04,2.05c0,1.12-0.93,2.05-2.05,2.05
				C10.76,14.05,9.84,13.12,9.84,11.99z"/>
			<path d="M21.38,12c0,1.13-0.93,2.05-2.05,2.05c-1.12,0-2.05-0.94-2.04-2.06c0.01-1.12,0.93-2.04,2.05-2.04
				C20.45,9.95,21.38,10.88,21.38,12z"/>
		</g>
</symbol>
<symbol id="menu_vertical" viewBox="0 0 24 24">
<g>
			<path d="M11.74,21.38c-0.27-0.1-0.56-0.17-0.81-0.31c-0.81-0.48-1.17-1.45-0.89-2.35c0.28-0.88,1.13-1.48,2.03-1.44
				c0.95,0.05,1.74,0.72,1.93,1.63c0.23,1.12-0.51,2.23-1.65,2.43c-0.03,0.01-0.07,0.02-0.1,0.03
				C12.09,21.38,11.91,21.38,11.74,21.38z"/>
			<path d="M11.99,14.16c-1.13,0-2.05-0.93-2.04-2.06c0.01-1.12,0.93-2.04,2.05-2.04c1.12,0,2.05,0.93,2.05,2.05
				C14.05,13.24,13.12,14.16,11.99,14.16z"/>
			<path d="M12,2.62c1.13,0,2.05,0.93,2.05,2.05c0,1.12-0.94,2.05-2.06,2.04c-1.12-0.01-2.04-0.93-2.04-2.05
				C9.95,3.55,10.88,2.62,12,2.62z"/>
		</g>
</symbol>
<symbol id="setting" viewBox="0 0 24 24">
<path d="M10.87,2c0.75,0,1.51,0,2.26,0c0.02,0.01,0.05,0.03,0.07,0.03c0.56,0.14,0.88,0.51,0.97,1.07
						c0.07,0.46,0.12,0.93,0.17,1.39c0.01,0.12,0.05,0.18,0.17,0.22c0.29,0.11,0.58,0.23,0.86,0.36c0.11,0.05,0.17,0.04,0.26-0.03
						c0.35-0.28,0.71-0.55,1.06-0.83c0.59-0.45,1.22-0.42,1.75,0.1c0.41,0.4,0.81,0.81,1.21,1.21c0.52,0.53,0.56,1.17,0.11,1.76
						c-0.28,0.36-0.55,0.72-0.84,1.08c-0.07,0.08-0.07,0.15-0.03,0.24c0.12,0.28,0.25,0.56,0.35,0.85c0.05,0.14,0.13,0.18,0.27,0.2
						c0.48,0.05,0.95,0.11,1.43,0.19c0.61,0.1,1.02,0.6,1.03,1.22c0.01,0.62,0.01,1.25,0,1.87c-0.01,0.62-0.42,1.12-1.03,1.22
						c-0.48,0.08-0.96,0.13-1.45,0.19c-0.12,0.01-0.19,0.05-0.24,0.18c-0.11,0.29-0.23,0.58-0.36,0.86
						c-0.04,0.1-0.04,0.16,0.03,0.24c0.28,0.35,0.55,0.71,0.83,1.06c0.46,0.6,0.43,1.24-0.1,1.77c-0.41,0.41-0.81,0.82-1.23,1.23
						c-0.51,0.5-1.15,0.54-1.72,0.1c-0.36-0.28-0.72-0.56-1.08-0.84c-0.09-0.07-0.15-0.08-0.26-0.03c-0.28,0.13-0.57,0.25-0.86,0.36
						c-0.1,0.04-0.16,0.09-0.17,0.2c-0.04,0.35-0.08,0.7-0.13,1.05c-0.05,0.35-0.07,0.71-0.32,1.01c-0.2,0.25-0.47,0.37-0.77,0.46
						c-0.75,0-1.51,0-2.26,0c-0.02-0.01-0.05-0.03-0.07-0.03c-0.56-0.15-0.88-0.51-0.97-1.07c-0.07-0.46-0.12-0.92-0.17-1.37
						c-0.01-0.13-0.06-0.2-0.19-0.25c-0.28-0.1-0.56-0.22-0.83-0.34c-0.11-0.05-0.18-0.05-0.28,0.03c-0.35,0.29-0.71,0.56-1.08,0.84
						c-0.57,0.44-1.21,0.4-1.72-0.11c-0.42-0.41-0.83-0.83-1.24-1.24c-0.5-0.51-0.54-1.15-0.1-1.73c0.28-0.37,0.57-0.73,0.84-1.1
						c0.04-0.05,0.05-0.16,0.03-0.22c-0.11-0.3-0.24-0.6-0.37-0.9c-0.03-0.07-0.12-0.14-0.19-0.15c-0.44-0.07-0.89-0.12-1.33-0.17
						c-0.35-0.04-0.67-0.16-0.88-0.45c-0.13-0.18-0.2-0.4-0.3-0.6c0-0.77,0-1.54,0-2.3c0.01-0.02,0.03-0.04,0.04-0.06
						C2.22,10.2,2.6,9.9,3.17,9.82C3.61,9.76,4.06,9.7,4.5,9.66c0.13-0.01,0.19-0.06,0.23-0.18C4.84,9.19,4.96,8.9,5.09,8.63
						c0.05-0.11,0.04-0.18-0.04-0.28C4.77,7.99,4.49,7.64,4.21,7.27C3.78,6.7,3.82,6.06,4.33,5.55c0.41-0.41,0.82-0.82,1.23-1.23
						C6.07,3.8,6.71,3.76,7.29,4.21c0.37,0.28,0.73,0.57,1.1,0.84c0.05,0.04,0.14,0.05,0.2,0.03C8.9,4.97,9.21,4.84,9.52,4.7
						c0.06-0.03,0.12-0.1,0.13-0.16C9.7,4.19,9.73,3.85,9.78,3.51c0.04-0.34,0.06-0.69,0.27-0.98C10.26,2.24,10.54,2.09,10.87,2z
						 M16.16,11.87c-0.1-2.32-2.02-4.13-4.27-4.04c-2.32,0.1-4.14,2.02-4.04,4.29c0.1,2.31,2.03,4.14,4.27,4.04
						C14.44,16.07,16.26,14.14,16.16,11.87z"/>
</symbol>
<symbol id="home" viewBox="0 0 24 24">
<path d="M3.1,22V8.68L11.99,2l8.91,6.68V22h-6.7v-7.9H9.78V22H3.1z"/>
</symbol>
<symbol id="folder_user" viewBox="0 0 24 24">
<path d="M7.98,16.89h8.01v-0.53c0-0.69-0.35-1.23-1.05-1.62s-1.68-0.58-2.96-0.58c-1.25,0-2.24,0.19-2.94,0.58
			c-0.71,0.39-1.06,0.92-1.06,1.62V16.89z M11.99,12.54c0.51,0,0.95-0.18,1.3-0.54c0.35-0.36,0.53-0.79,0.53-1.29
			c0-0.51-0.18-0.95-0.53-1.31c-0.35-0.36-0.79-0.54-1.3-0.54c-0.51,0-0.95,0.18-1.3,0.54c-0.35,0.36-0.53,0.79-0.53,1.29
			c0,0.51,0.18,0.95,0.53,1.31C11.04,12.36,11.47,12.54,11.99,12.54z M3.91,21.11c-0.51,0-0.96-0.19-1.34-0.57
			C2.19,20.16,2,19.72,2,19.2V7.07C2,6.55,2.19,6.1,2.57,5.72c0.38-0.39,0.82-0.58,1.34-0.58h3.35l1.91-2.24h5.67l1.88,2.24h3.35
			c0.51,0,0.97,0.19,1.35,0.58C21.81,6.1,22,6.55,22,7.07V19.2c0,0.51-0.19,0.96-0.58,1.34c-0.39,0.38-0.84,0.57-1.35,0.57H3.91z"/>
</symbol>
<symbol id="service" viewBox="0 0 24 24">
<g>
		<path d="M5.59,4.8c-0.2,0-0.37,0.07-0.51,0.21S4.88,5.32,4.88,5.52c0,0.2,0.07,0.37,0.21,0.51c0.14,0.14,0.31,0.21,0.51,0.21
			c0.2,0,0.37-0.07,0.51-0.21c0.14-0.14,0.21-0.31,0.21-0.51S6.24,5.15,6.1,5.01C5.96,4.87,5.79,4.8,5.59,4.8z M3.62,2.84h16.74
			c0.19,0,0.35,0.06,0.47,0.19S21,3.31,21,3.5v3.94c0,0.22-0.06,0.4-0.18,0.54S20.55,8.2,20.36,8.2H3.62
			c-0.18,0-0.33-0.07-0.44-0.21S3,7.66,3,7.44V3.5c0-0.19,0.06-0.35,0.17-0.47S3.43,2.84,3.62,2.84z"/>
		<path d="M5.59,11.2c-0.2,0-0.37,0.07-0.51,0.21s-0.21,0.31-0.21,0.51c0,0.2,0.07,0.37,0.21,0.51s0.31,0.21,0.51,0.21
			c0.2,0,0.37-0.07,0.51-0.21c0.14-0.14,0.21-0.31,0.21-0.51c0-0.2-0.07-0.37-0.21-0.51S5.79,11.2,5.59,11.2z M3.62,9.24h16.74
			c0.19,0,0.35,0.06,0.47,0.19S21,9.71,21,9.9v3.94c0,0.22-0.06,0.4-0.18,0.54c-0.12,0.14-0.27,0.21-0.47,0.21H3.62
			c-0.18,0-0.33-0.07-0.44-0.21C3.06,14.24,3,14.06,3,13.84V9.9c0-0.19,0.06-0.35,0.17-0.47S3.43,9.24,3.62,9.24z"/>
		<path d="M5.59,17.77c-0.2,0-0.37,0.07-0.51,0.21c-0.14,0.14-0.21,0.31-0.21,0.51c0,0.2,0.07,0.37,0.21,0.51s0.31,0.21,0.51,0.21
			c0.2,0,0.37-0.07,0.51-0.21c0.14-0.14,0.21-0.31,0.21-0.51s-0.07-0.37-0.21-0.51S5.79,17.77,5.59,17.77z M3.62,15.8h16.74
			c0.19,0,0.35,0.06,0.47,0.19S21,16.27,21,16.46v3.94c0,0.22-0.06,0.4-0.18,0.54s-0.27,0.21-0.47,0.21H3.62
			c-0.18,0-0.33-0.07-0.44-0.21S3,20.62,3,20.4v-3.94c0-0.19,0.06-0.35,0.17-0.47S3.43,15.8,3.62,15.8z"/>
	</g>
</symbol>
<symbol id="mail" viewBox="0 0 24 24">
		<path d="M3.91,20.07c-0.51,0-0.96-0.19-1.34-0.57S2,18.68,2,18.16V5.86C2,5.33,2.19,4.87,2.57,4.5s0.82-0.57,1.34-0.57h16.16
			c0.53,0,0.99,0.19,1.36,0.57S22,5.33,22,5.86v12.3c0,0.51-0.19,0.96-0.57,1.34s-0.83,0.57-1.36,0.57H3.91z M11.99,12.88l8.08-5.38
			V5.86l-8.08,5.26L3.91,5.86V7.5L11.99,12.88z"/>
</symbol>
<symbol id="folder" viewBox="0 0 24 24">
	<path d="M3.91,20.14c-0.51,0-0.96-0.19-1.34-0.58S2,18.74,2,18.24V5.79c0-0.51,0.19-0.97,0.57-1.35c0.38-0.39,0.82-0.58,1.34-0.58
			h6.49l1.59,1.59h8.08c0.51,0,0.97,0.19,1.35,0.58C21.81,6.41,22,6.87,22,7.38v10.86c0,0.5-0.19,0.94-0.58,1.33
			c-0.39,0.39-0.84,0.58-1.35,0.58H3.91z"/>
</symbol>
<symbol id="folder_open" viewBox="0 0 24 24">
<path d="M3.78,19.61c-0.47,0-0.88-0.18-1.24-0.54C2.18,18.71,2,18.29,2,17.83V6.19c0-0.48,0.18-0.9,0.54-1.26s0.77-0.54,1.24-0.54
			h6.09l1.49,1.49h7.53c0.48,0,0.9,0.18,1.26,0.54c0.36,0.36,0.54,0.78,0.54,1.26H3.78v10.19l2.3-8.84H22l-2.34,8.97
			c-0.17,0.57-0.43,0.98-0.79,1.23c-0.36,0.25-0.84,0.37-1.44,0.37H3.78z"/>
</symbol>
<symbol id="cloud" viewBox="0 0 24 24">
	<path d="M0.86,13c0.11-0.45,0.18-0.93,0.35-1.36c0.71-1.76,2.01-2.82,3.89-3.17c0.67-0.12,1.33-0.09,1.98,0.07
				C7.2,8.57,7.27,8.55,7.33,8.43c0.77-1.57,2.01-2.55,3.74-2.83c1.67-0.28,3.13,0.2,4.34,1.38c0.18,0.18,0.31,0.23,0.57,0.14
				c2.56-0.85,5.15,1.42,4.65,4.07c-0.03,0.16,0,0.23,0.16,0.28c1.52,0.56,2.51,2.14,2.33,3.72c-0.19,1.72-1.46,3.04-3.14,3.26
				c-0.19,0.03-0.39,0.04-0.59,0.04c-4.46,0-8.92,0.01-13.38,0c-2.17-0.01-3.75-1.01-4.7-2.97c-0.21-0.44-0.28-0.94-0.42-1.41
				c-0.02-0.08-0.03-0.15-0.05-0.23C0.86,13.58,0.86,13.29,0.86,13z"/>
</symbol>
<symbol id="light_bulb" viewBox="0 0 24 24">
<g>
			<path d="M12.43,1.19c0.43,0.07,0.86,0.12,1.28,0.22c1.29,0.3,2.4,0.94,3.34,1.87c1.03,1.03,1.69,2.27,1.98,3.7
				c0.27,1.31,0.09,2.54-0.55,3.73c-0.72,1.36-1.65,2.56-2.67,3.7c-0.31,0.35-0.63,0.7-0.97,1.03c-0.33,0.32-0.49,0.73-0.63,1.15
				c-0.02,0.07-0.01,0.15-0.01,0.23c0,0.59,0,1.18,0,1.78c-1.46,0-2.92,0-4.4,0c0-0.12,0-0.25,0-0.37c0-0.5,0.04-1,0-1.5
				c-0.03-0.45-0.23-0.86-0.54-1.18c-1.02-1.06-2-2.14-2.83-3.35c-0.58-0.84-1.09-1.7-1.4-2.68c-0.23-0.74-0.22-1.5-0.1-2.25
				c0.32-2.03,1.34-3.63,3.02-4.81c1.03-0.73,2.19-1.14,3.45-1.24c0.06-0.01,0.12-0.02,0.18-0.03C11.86,1.19,12.14,1.19,12.43,1.19z
				"/>
			<path d="M14.19,20.49c0.07,0.77-0.05,1.46-0.7,1.95c-0.28,0.21-0.6,0.34-0.95,0.35c-0.4,0.01-0.8,0.02-1.2-0.02
				c-0.77-0.08-1.39-0.69-1.51-1.46c-0.04-0.27-0.03-0.54-0.04-0.83C11.27,20.49,12.72,20.49,14.19,20.49z"/>
			<path d="M9.81,19.69c0-0.1,0-0.19,0-0.29c1.46,0,2.92,0,4.39,0c0,0.1,0,0.19,0,0.29C12.74,19.69,11.29,19.69,9.81,19.69z"/>
		</g>
</symbol>
<symbol id="trash" viewBox="0 0 24 24">
<g>
                <path d="M21.02,7.57c-0.16,0.35-0.44,0.45-0.81,0.45c-5.44-0.01-10.87,0-16.31-0.01C3.73,8.01,3.55,8,3.38,7.97
                    C3.16,7.92,3,7.77,2.99,7.54C2.98,7,2.95,6.44,3.02,5.9c0.11-0.87,0.86-1.49,1.74-1.5c1.13-0.01,2.26-0.01,3.39,0
                    c0.16,0,0.23-0.05,0.28-0.2c0.09-0.31,0.2-0.62,0.31-0.93c0.23-0.67,0.69-1.09,1.39-1.24C10.15,2.03,10.17,2.01,10.2,2
                    c1.2,0,2.41,0,3.61,0c0.02,0.01,0.05,0.03,0.07,0.03c0.7,0.15,1.16,0.57,1.39,1.24c0.11,0.32,0.22,0.63,0.31,0.95
                    c0.04,0.14,0.1,0.18,0.25,0.18c1.13-0.01,2.26-0.01,3.38,0c0.77,0.01,1.33,0.39,1.66,1.09c0.07,0.15,0.1,0.31,0.15,0.47
                    C21.02,6.5,21.02,7.04,21.02,7.57z M9.63,4.39c1.59,0,3.16,0,4.74,0c-0.1-0.28-0.18-0.55-0.28-0.81
                    C14,3.34,13.81,3.21,13.55,3.21c-1.04-0.01-2.07-0.01-3.11,0c-0.26,0-0.45,0.13-0.54,0.38C9.81,3.84,9.73,4.11,9.63,4.39z"/>
                <path d="M4.34,8.77c5.12,0,10.21,0,15.32,0c0,0.07,0,0.13,0,0.2c-0.11,1.36-0.23,2.73-0.34,4.09c-0.1,1.2-0.2,2.41-0.3,3.61
                    c-0.1,1.24-0.19,2.49-0.32,3.73C18.6,21.34,17.85,22,16.89,22c-2.45,0-4.89,0-7.34,0C8.78,22,8,22,7.23,22
                    c-1.14,0-1.86-0.66-1.96-1.79c-0.18-2.18-0.36-4.37-0.54-6.55c-0.13-1.53-0.26-3.06-0.39-4.59C4.34,8.98,4.34,8.88,4.34,8.77z
                     M8.99,14.78c0-1.38,0-2.76,0-4.15c0-0.41-0.23-0.67-0.61-0.66c-0.37,0.01-0.59,0.25-0.59,0.66c0,2.76,0,5.53,0,8.29
                    c0,0.05,0,0.09,0,0.14c0.03,0.24,0.17,0.42,0.41,0.49c0.43,0.13,0.79-0.14,0.79-0.61C9,17.56,8.99,16.17,8.99,14.78z
                     M12.6,14.78c0-1.38,0-2.76,0-4.15c0-0.41-0.23-0.67-0.61-0.66c-0.37,0.01-0.59,0.25-0.59,0.66c0,2.76,0,5.53,0,8.29
                    c0,0.05,0,0.09,0,0.14c0.03,0.24,0.17,0.42,0.41,0.49c0.43,0.13,0.79-0.14,0.79-0.61C12.6,17.56,12.6,16.17,12.6,14.78z
                     M16.21,14.8c0-1.07,0-2.14,0-3.21c0-0.35,0.01-0.69,0-1.04c-0.01-0.31-0.26-0.56-0.56-0.58c-0.29-0.02-0.56,0.19-0.62,0.48
                    c-0.02,0.08-0.01,0.16-0.01,0.24c0,2.73,0,5.45,0,8.18c0,0.07,0,0.13,0,0.2c0.03,0.24,0.16,0.41,0.39,0.48
                    c0.42,0.14,0.8-0.14,0.8-0.59C16.21,17.57,16.21,16.19,16.21,14.8z"/>
            </g>
</symbol>
<symbol id="pen" viewBox="0 0 24 24">
<g>
					<path d="M20.73,6.4c-0.09,0.38-0.33,0.65-0.6,0.91c-0.47,0.45-0.93,0.92-1.39,1.38c-0.04,0.04-0.09,0.09-0.12,0.12
						c-1.18-1.18-2.36-2.36-3.55-3.55c0.02-0.02,0.06-0.06,0.09-0.1c0.45-0.45,0.89-0.89,1.34-1.34c0.7-0.7,1.64-0.7,2.34,0
						c0.44,0.43,0.86,0.87,1.3,1.3c0.27,0.26,0.5,0.53,0.58,0.9C20.73,6.15,20.73,6.28,20.73,6.4z"/>
					<path d="M3.57,20.69c-0.3-0.19-0.35-0.28-0.27-0.63c0.28-1.27,0.57-2.53,0.85-3.8c0-0.02,0.01-0.04,0.01-0.03
						c1.16,1.16,2.33,2.33,3.5,3.49C7.35,19.81,7,19.89,6.65,19.98c-0.94,0.23-1.88,0.46-2.83,0.68c-0.03,0.01-0.05,0.02-0.08,0.03
						C3.69,20.69,3.63,20.69,3.57,20.69z"/>
					<path d="M8.66,18.71c-1.16-1.15-2.33-2.32-3.49-3.48c2.99-2.99,5.98-5.98,8.96-8.96c1.15,1.15,2.32,2.32,3.48,3.48
						C14.65,12.72,11.66,15.71,8.66,18.71z"/>
				</g>
</symbol>
<symbol id="search" viewBox="0 0 24 24">
		<path d="M2.42,9.63c0.05-3.64,2.8-6.77,6.35-7.14c3.77-0.4,7.14,2,7.89,5.65c0.39,1.91,0.06,3.71-1,5.36
			c-0.13,0.2-0.14,0.31,0.04,0.48c1.79,1.78,3.58,3.57,5.37,5.35c0.26,0.26,0.48,0.52,0.51,0.9c0.04,0.52-0.22,0.98-0.66,1.19
			c-0.47,0.23-0.98,0.15-1.37-0.23c-0.66-0.64-1.31-1.3-1.96-1.95c-1.21-1.21-2.41-2.41-3.61-3.62c-0.15-0.15-0.24-0.13-0.4-0.03
			c-4.19,2.69-9.65,0.56-10.89-4.25C2.55,10.78,2.51,10.2,2.42,9.63z M9.62,14.38c2.64,0.01,4.78-2.12,4.79-4.75
			c0.01-2.66-2.11-4.8-4.76-4.8C7.01,4.83,4.88,6.95,4.87,9.59C4.86,12.23,6.99,14.37,9.62,14.38z"/>
</symbol>
<symbol id="filter" viewBox="0 0 24 24">
		<path d="M10.5,22v-6.38h1.96v2.23h9.46v1.96h-9.46V22H10.5z M2.08,19.8v-1.96h6.97v1.96H2.08z M7.09,15.16v-2.2H2.08v-1.93h5.01
			V8.78h1.96v6.38L7.09,15.16z M10.5,12.97v-1.93h11.42v1.93H10.5z M14.95,8.38V2h1.96v2.2h5.01v1.96h-5.01v2.23L14.95,8.38z
			 M2.08,6.16V4.2H13.5v1.96L2.08,6.16z"/>
</symbol>
<symbol id="refresh" viewBox="0 0 24 24">
<path d="M11.97,20.51c-2.29,0-4.27-0.83-5.96-2.49s-2.53-3.62-2.53-5.89v-1.19l-1.88,1.91L0.5,11.72l4.02-4.05l4.05,4.05
			l-1.13,1.13l-1.88-1.91v1.13c0,1.75,0.63,3.25,1.9,4.5c1.26,1.25,2.77,1.87,4.53,1.87c0.53,0,1.03-0.05,1.5-0.14
			s0.89-0.24,1.29-0.43l1.44,1.44c-0.65,0.41-1.33,0.71-2.04,0.9C13.46,20.41,12.73,20.51,11.97,20.51z M19.48,16.28l-4.05-4.05
			l1.13-1.13l1.88,1.88v-1.06c0-1.74-0.64-3.23-1.91-4.49S13.75,5.55,12,5.55c-0.53,0-1.03,0.05-1.5,0.15
			c-0.46,0.1-0.89,0.23-1.29,0.39L7.77,4.65c0.67-0.41,1.35-0.71,2.05-0.89c0.7-0.18,1.42-0.27,2.18-0.27c2.29,0,4.27,0.83,5.96,2.5
			c1.68,1.67,2.53,3.64,2.53,5.9v1.13l1.88-1.91l1.13,1.11L19.48,16.28z"/>
</symbol>
<symbol id="share" viewBox="0 0 24 24">
	<path d="M17.97,22c-0.86,0-1.58-0.3-2.18-0.91c-0.6-0.61-0.9-1.33-0.9-2.17c0-0.11,0.01-0.25,0.04-0.41
			c0.02-0.16,0.06-0.31,0.11-0.46l-6.83-3.97c-0.27,0.29-0.61,0.53-0.99,0.71c-0.39,0.19-0.78,0.28-1.19,0.28
			c-0.86,0-1.58-0.3-2.18-0.9s-0.9-1.32-0.9-2.18c0-0.86,0.3-1.58,0.9-2.18c0.6-0.6,1.32-0.9,2.18-0.9c0.4,0,0.79,0.08,1.16,0.24
			C7.56,9.33,7.9,9.55,8.21,9.85l6.83-3.92c-0.05-0.11-0.08-0.25-0.11-0.41c-0.02-0.16-0.04-0.31-0.04-0.44
			c0-0.86,0.3-1.58,0.9-2.18S17.11,2,17.97,2c0.86,0,1.58,0.3,2.18,0.9s0.9,1.32,0.9,2.18s-0.3,1.58-0.9,2.18s-1.32,0.9-2.18,0.9
			c-0.42,0-0.82-0.06-1.19-0.19c-0.37-0.13-0.69-0.34-0.94-0.63l-6.85,3.75c0.05,0.13,0.08,0.29,0.1,0.47
			C9.1,11.74,9.11,11.89,9.11,12c0,0.11-0.01,0.24-0.02,0.38s-0.05,0.28-0.1,0.42l6.85,3.85c0.26-0.24,0.56-0.44,0.92-0.58
			c0.36-0.15,0.76-0.22,1.21-0.22c0.86,0,1.58,0.3,2.18,0.9s0.9,1.32,0.9,2.18c0,0.86-0.3,1.58-0.9,2.18S18.82,22,17.97,22z"/>
</symbol>
<symbol id="point" viewBox="0 0 24 24">
<path d="M12,11.81c0.49,0,0.9-0.17,1.25-0.52c0.35-0.35,0.52-0.77,0.52-1.25s-0.17-0.9-0.52-1.25C12.9,8.43,12.49,8.25,12,8.25
			s-0.9,0.17-1.25,0.52c-0.35,0.35-0.52,0.77-0.52,1.25s0.17,0.9,0.52,1.25C11.1,11.63,11.51,11.81,12,11.81z M12,22
			c-2.69-2.29-4.7-4.41-6.03-6.36s-2-3.76-2-5.41c0-2.5,0.81-4.49,2.42-5.99S9.88,2,12,2s3.99,0.75,5.61,2.24s2.42,3.49,2.42,5.99
			c0,1.65-0.67,3.46-2,5.41C16.7,17.59,14.69,19.71,12,22z"/>
</symbol>
<symbol id="calendar" viewBox="0 0 24 24">
<path d="M4.87,22c-0.51,0-0.96-0.19-1.34-0.57c-0.38-0.38-0.57-0.82-0.57-1.34V5.38c0-0.53,0.19-0.99,0.57-1.36
			c0.38-0.38,0.82-0.57,1.34-0.57h1.45V2h1.81v1.45h7.72V2h1.81v1.45h1.45c0.53,0,0.99,0.19,1.36,0.57
			c0.38,0.38,0.57,0.83,0.57,1.36v14.72c0,0.51-0.19,0.96-0.57,1.34C20.09,21.81,19.64,22,19.1,22H4.87z M4.87,20.09H19.1V9.84H4.87
			V20.09z"/>
</symbol>
<symbol id="X2" viewBox="0 0 24 24">
			<polygon points="20,5.78 18.22,4 12,10.22 5.78,4 4,5.78 10.22,12 4,18.22 5.78,20 12,13.78 18.22,20 20,18.22 13.78,12 			"/>
</symbol>
<symbol id="left" viewBox="0 0 24 24">
		<polygon points="16.78,5.55 15.22,4 8.78,10.45 8.78,10.45 7.22,12 7.22,12 7.22,12 8.78,13.55 8.78,13.55 15.22,20 16.78,18.45 
				10.33,12 			"/>
</symbol>
<symbol id="right" viewBox="0 0 24 24">
	<polygon points="7.22,18.45 8.78,20 15.22,13.55 15.22,13.55 16.78,12 16.78,12 16.78,12 15.22,10.45 15.22,10.45 8.78,4 
				7.22,5.55 13.67,12 			"/>
</symbol>
<symbol id="down" viewBox="0 0 24 24">
	<polygon points="5.55,7.22 4,8.78 10.45,15.22 10.45,15.22 12,16.78 12,16.78 12,16.78 13.55,15.22 13.55,15.22 20,8.78 
				18.45,7.22 12,13.67 			"/>
</symbol>
<symbol id="down2" viewBox="0 0 24 24">
	<polygon points="12,17.33 17,10.67 7,10.67             "/>
</symbol>
<symbol id="up" viewBox="0 0 24 24">
<polygon points="18.45,16.78 20,15.22 13.55,8.78 13.55,8.78 12,7.22 12,7.22 12,7.22 10.45,8.78 10.45,8.78 4,15.22 5.55,16.78 
				12,10.33 			"/>
</symbol>
<symbol id="up2" viewBox="0 0 24 24">
	<polygon points="12,8.67 7,15.33 17,15.33"/>
</symbol>
<symbol id="arrow_left" viewBox="0 0 24 24">
	<path d="M12,20l-8-8l8-8l1.37,1.35l-5.64,5.67H20v1.96H7.73l5.64,5.64L12,20z"/>
</symbol>
<symbol id="arrow_right" viewBox="0 0 24 24">
	<path d="M12,4l8,8l-8,8l-1.37-1.35l5.64-5.67H4v-1.96h12.27l-5.64-5.64L12,4z"/>
</symbol>
<symbol id="arrow_down" viewBox="0 0 24 24">
		<path d="M20,12l-8,8l-8-8l1.35-1.37l5.67,5.64V4h1.96v12.27l5.64-5.64L20,12z"/>
</symbol>
<symbol id="arrow_up" viewBox="0 0 24 24">
	<path d="M4,12l8-8l8,8l-1.35,1.37l-5.67-5.64V20h-1.96V7.73l-5.64,5.64L4,12z"/>
</symbol>
<symbol id="arrow_back" viewBox="0 0 24 24">
<path d="M6.69,20v-2.05h7.64c1.15,0,2.12-0.37,2.94-1.12c0.81-0.74,1.22-1.67,1.22-2.78s-0.41-2.04-1.22-2.78
			c-0.81-0.74-1.79-1.12-2.94-1.12H7.36l2.69,2.67l-1.44,1.44L3.49,9.13L8.62,4l1.44,1.44L7.36,8.1h6.95c1.69,0,3.15,0.57,4.37,1.72
			c1.22,1.15,1.83,2.56,1.83,4.23c0,1.68-0.61,3.09-1.83,4.23C17.46,19.43,16,20,14.31,20H6.69z"/>
</symbol>
<symbol id="warning" viewBox="0 0 24 24">
<path d="M11.99,17.17c0.32,0,0.58-0.1,0.78-0.3c0.2-0.2,0.3-0.46,0.3-0.78c0-0.31-0.1-0.57-0.3-0.78
			c-0.2-0.22-0.46-0.33-0.78-0.33c-0.32,0-0.58,0.11-0.78,0.33c-0.2,0.22-0.3,0.48-0.3,0.78c0,0.32,0.1,0.58,0.3,0.78
			S11.67,17.17,11.99,17.17z M11.1,13.17h1.93V6.83H11.1V13.17z M11.99,22c-1.38,0-2.68-0.26-3.88-0.78s-2.26-1.24-3.17-2.15
			c-0.91-0.91-1.62-1.97-2.15-3.17S2,13.4,2,12.01c0-1.4,0.26-2.7,0.78-3.91s1.23-2.26,2.14-3.16S6.88,3.33,8.09,2.8S10.6,2,11.99,2
			c1.4,0,2.71,0.27,3.92,0.8c1.21,0.53,2.27,1.24,3.16,2.14s1.6,1.95,2.14,3.16s0.8,2.52,0.8,3.92c0,1.38-0.27,2.68-0.8,3.9
			s-1.25,2.27-2.15,3.17c-0.9,0.9-1.95,1.61-3.16,2.14S13.39,22,11.99,22z"/>
</symbol>
<symbol id="warning_point" viewBox="0 0 24 24">
<path d="M11.2,11.25h1.61V6.14H11.2V11.25z M12,14.48c0.23,0,0.42-0.08,0.57-0.24c0.15-0.16,0.23-0.35,0.23-0.56
			c0-0.23-0.08-0.42-0.23-0.57c-0.15-0.15-0.34-0.23-0.57-0.23c-0.21,0-0.4,0.08-0.56,0.23c-0.16,0.15-0.24,0.34-0.24,0.57
			c0,0.21,0.08,0.4,0.24,0.56C11.6,14.4,11.79,14.48,12,14.48z M12,22c-2.69-2.29-4.7-4.41-6.03-6.36s-2-3.76-2-5.41
			c0-2.5,0.81-4.49,2.42-5.99S9.88,2,12,2s3.99,0.75,5.61,2.24s2.42,3.49,2.42,5.99c0,1.65-0.67,3.46-2,5.41
			C16.7,17.59,14.69,19.71,12,22z"/>
</symbol>
<symbol id="bell" viewBox="0 0 24 24">
		<path d="M3.7,19.06v-1.9h2.14v-7.01c0-1.43,0.41-2.71,1.24-3.84s1.93-1.85,3.31-2.16V3.52c0-0.43,0.16-0.8,0.47-1.08
			S11.55,2,11.99,2c0.43,0,0.81,0.14,1.12,0.43c0.31,0.29,0.47,0.65,0.47,1.08v0.63c1.38,0.31,2.49,1.02,3.34,2.16
			c0.84,1.13,1.27,2.41,1.27,3.84v7.01h2.12v1.9L3.7,19.06z M11.99,22c-0.55,0-1.02-0.2-1.43-0.6c-0.41-0.4-0.61-0.88-0.61-1.42h4.1
			c0,0.56-0.2,1.04-0.6,1.43C13.03,21.8,12.55,22,11.99,22z"/>
</symbol>
<symbol id="warning_bell" viewBox="0 0 24 24">
<path d="M11.24,13.18h1.49V8.22h-1.49V13.18z M11.99,15.76c0.22,0,0.42-0.08,0.59-0.24c0.17-0.16,0.25-0.35,0.25-0.58
			c0-0.24-0.08-0.44-0.25-0.6c-0.17-0.16-0.37-0.24-0.59-0.24c-0.22,0-0.42,0.08-0.59,0.24c-0.17,0.16-0.25,0.36-0.25,0.6
			c0,0.22,0.08,0.42,0.25,0.58C11.57,15.68,11.76,15.76,11.99,15.76z M3.7,19.06v-1.9h2.14v-7.01c0-1.43,0.41-2.71,1.24-3.84
			s1.93-1.85,3.31-2.16V3.52c0-0.43,0.16-0.8,0.47-1.08S11.55,2,11.99,2c0.43,0,0.81,0.14,1.12,0.43c0.31,0.29,0.47,0.65,0.47,1.08
			v0.63c1.38,0.31,2.49,1.02,3.34,2.16c0.84,1.13,1.27,2.41,1.27,3.84v7.01h2.12v1.9L3.7,19.06z M11.99,22
			c-0.55,0-1.02-0.2-1.43-0.6c-0.41-0.4-0.61-0.88-0.61-1.42h4.1c0,0.56-0.2,1.04-0.6,1.43C13.03,21.8,12.55,22,11.99,22z"/>
</symbol>
<symbol id="question" viewBox="0 0 24 24">
<path d="M12.06,17.63c0.27,0,0.51-0.1,0.71-0.3s0.3-0.45,0.3-0.74c0-0.27-0.1-0.51-0.3-0.71s-0.44-0.3-0.71-0.3
			c-0.29,0-0.53,0.1-0.74,0.3s-0.3,0.44-0.3,0.71c0,0.29,0.1,0.53,0.3,0.74S11.77,17.63,12.06,17.63z M11.1,14.11h1.64
			c0-0.4,0.05-0.78,0.16-1.12s0.41-0.74,0.93-1.17c0.48-0.37,0.82-0.76,1.03-1.18c0.2-0.42,0.3-0.88,0.3-1.38
			c0-0.87-0.27-1.57-0.81-2.1s-1.27-0.8-2.18-0.8c-0.82,0-1.55,0.21-2.18,0.64c-0.64,0.43-1.1,1.01-1.39,1.75l1.5,0.55
			c0.19-0.47,0.46-0.82,0.8-1.06c0.34-0.24,0.72-0.36,1.16-0.36c0.45,0,0.83,0.13,1.13,0.4c0.31,0.27,0.46,0.61,0.46,1.03
			c0,0.32-0.1,0.64-0.29,0.94s-0.47,0.6-0.82,0.89c-0.47,0.4-0.82,0.82-1.06,1.25C11.22,12.83,11.1,13.4,11.1,14.11z M11.99,22
			c-1.37,0-2.66-0.26-3.87-0.78c-1.21-0.52-2.28-1.24-3.18-2.15c-0.91-0.91-1.62-1.97-2.15-3.17S2,13.4,2,12.01s0.26-2.68,0.78-3.9
			s1.23-2.27,2.14-3.17S6.88,3.33,8.09,2.8S10.6,2,11.99,2s2.69,0.27,3.91,0.8s2.28,1.24,3.17,2.14c0.89,0.89,1.6,1.95,2.14,3.16
			s0.8,2.52,0.8,3.92c0,1.38-0.27,2.68-0.8,3.9s-1.25,2.27-2.15,3.17c-0.9,0.9-1.95,1.61-3.16,2.14S13.39,22,11.99,22z"/>
</symbol>
<symbol id="question2" viewBox="0 0 24 24">
			<path d="M10.73,14.97c0.02-1.22,0.16-2.11,0.43-2.68c0.27-0.57,0.73-1.12,1.4-1.66c0.61-0.51,1.07-1,1.37-1.46
			c0.3-0.47,0.45-0.97,0.45-1.53c0-0.62-0.21-1.13-0.62-1.54c-0.41-0.41-0.98-0.62-1.7-0.62c-0.74,0-1.32,0.21-1.74,0.62
			c-0.43,0.41-0.74,0.9-0.93,1.45L7.02,6.51C7.39,5.5,8.01,4.67,8.86,4c0.85-0.67,1.92-1,3.19-1c1.58,0,2.79,0.45,3.65,1.34
			s1.28,1.97,1.28,3.23c0,0.83-0.16,1.56-0.47,2.19c-0.31,0.64-0.81,1.26-1.48,1.88c-0.72,0.65-1.16,1.16-1.32,1.54
			c-0.16,0.38-0.24,0.98-0.24,1.79H10.73z M12.06,21c-0.52,0-0.97-0.18-1.33-0.55c-0.36-0.37-0.54-0.81-0.54-1.32
			c0-0.51,0.18-0.95,0.54-1.32c0.36-0.37,0.8-0.55,1.33-0.55s0.97,0.18,1.33,0.55c0.36,0.37,0.54,0.81,0.54,1.32
			c0,0.51-0.18,0.95-0.55,1.32C13.01,20.82,12.57,21,12.06,21z"/>
</symbol>
<symbol id="check" viewBox="0 0 24 24">
	<path d="M9.31,18.6L3,12.29l1.54-1.51l4.77,4.77L19.46,5.4L21,6.91L9.31,18.6z"/>
</symbol>
<symbol id="check_circle" viewBox="0 0 24 24">
<path d="M10.54,16.6l6.97-6.97l-1.38-1.38l-5.6,5.6l-2.77-2.77l-1.35,1.38L10.54,16.6z M11.99,22c-1.37,0-2.66-0.26-3.87-0.78
			c-1.21-0.52-2.28-1.24-3.18-2.15c-0.91-0.91-1.62-1.97-2.15-3.17S2,13.4,2,12.01s0.26-2.68,0.78-3.9s1.23-2.27,2.14-3.17
			S6.88,3.33,8.09,2.8S10.6,2,11.99,2s2.69,0.27,3.91,0.8s2.28,1.24,3.17,2.14c0.89,0.89,1.6,1.95,2.14,3.16s0.8,2.52,0.8,3.92
			c0,1.38-0.27,2.68-0.8,3.9s-1.25,2.27-2.15,3.17c-0.9,0.9-1.95,1.61-3.16,2.14S13.39,22,11.99,22z"/>
</symbol>
<symbol id="check_underline" viewBox="0 0 24 24">
<path d="M4.32,21.13v-2.11h15.33v2.11H4.32z M9.34,16.03L3,9.66l1.48-1.48l4.86,4.86L19.52,2.87L21,4.37L9.34,16.03z"/>
</symbol>
<symbol id="logout" viewBox="0 0 24 24">
	<path d="M4.08,21.86c-0.56,0-1.05-0.21-1.46-0.62C2.21,20.82,2,20.34,2,19.78V4.25c0-0.58,0.21-1.07,0.62-1.49
			c0.41-0.41,0.9-0.62,1.46-0.62h7.76v2.11H4.08v15.53h7.76v2.08H4.08z M16.92,17.14l-1.53-1.47l2.63-2.61H9.05v-2.11h8.92
			l-2.63-2.61l1.53-1.47L22,12.04L16.92,17.14z"/>
</symbol>
<symbol id="download" viewBox="0 0 24 24">
	<path d="M4.69,21.66c-0.6,0-1.12-0.21-1.54-0.64S2.5,20.08,2.5,19.48v-4.59h2.19v4.59h14.65v-4.59h2.16v4.59
			c0,0.6-0.21,1.12-0.64,1.54c-0.43,0.43-0.93,0.64-1.52,0.64H4.69z M12.01,16.42l-5.82-5.82l1.56-1.53l3.17,3.2V2.34h2.19v9.92
			l3.17-3.2l1.56,1.53L12.01,16.42z"/>
</symbol>
<symbol id="image" viewBox="0 0 24 24">
	<path d="M4.9,21c-0.51,0-0.96-0.19-1.33-0.56C3.19,20.06,3,19.61,3,19.1V4.92c0-0.53,0.19-0.98,0.56-1.36S4.39,3,4.9,3h14.18
			c0.53,0,0.98,0.19,1.36,0.56S21,4.39,21,4.92V19.1c0,0.51-0.19,0.96-0.56,1.33C20.06,20.81,19.61,21,19.08,21H4.9z M5.96,17.01
			h12.09l-3.7-5.02l-3.17,4.11l-2.23-3.05L5.96,17.01z"/>
</symbol>
<symbol id="attached" viewBox="0 0 24 24">
<path d="M5.84,22c-0.51,0-0.96-0.19-1.34-0.57s-0.57-0.82-0.57-1.34V3.93c0-0.53,0.19-0.99,0.57-1.36S5.32,2,5.84,2h8.54
			l5.69,5.69v12.4c0,0.51-0.19,0.96-0.57,1.34C19.13,21.81,18.67,22,18.14,22H5.84z M11.99,18.16c0.93,0,1.73-0.33,2.39-0.99
			c0.66-0.66,0.99-1.46,0.99-2.39v-3.33H14.4v3.33c0,0.68-0.23,1.25-0.7,1.71c-0.47,0.47-1.04,0.7-1.71,0.7s-1.25-0.23-1.71-0.7
			c-0.47-0.47-0.7-1.04-0.7-1.71V9.53c0-0.29,0.09-0.52,0.28-0.7c0.18-0.18,0.41-0.27,0.69-0.27c0.29,0,0.52,0.09,0.7,0.27
			c0.18,0.18,0.27,0.41,0.27,0.7v4.78h0.97V9.53c0-0.55-0.18-1.01-0.55-1.38c-0.37-0.37-0.83-0.55-1.38-0.55
			c-0.55,0-1.01,0.18-1.38,0.55C8.8,8.52,8.61,8.98,8.61,9.53v5.26c0,0.93,0.33,1.73,0.99,2.39C10.26,17.83,11.06,18.16,11.99,18.16
			z M13.77,8.3h4.37l-4.37-4.37V8.3z"/>
</symbol>
<symbol id="copy" viewBox="0 0 24 24">
<path d="M4.9,22c-0.47,0-0.88-0.17-1.23-0.52c-0.35-0.35-0.52-0.75-0.52-1.23V6.7H4.9v13.55h11.08V22H4.9z M7.99,18.93
			c-0.49,0-0.9-0.17-1.25-0.52c-0.35-0.35-0.52-0.76-0.52-1.25V3.74c0-0.47,0.17-0.88,0.52-1.23S7.51,2,7.99,2h7.55l5.3,5.3v9.87
			c0,0.49-0.17,0.9-0.52,1.25s-0.75,0.52-1.23,0.52H7.99z M14.64,8.11h4.46l-4.46-4.37V8.11z"/>
</symbol>
<symbol id="eye_close" viewBox="0 0 24 24">
<path d="M19.31,21.61l-3.53-3.49c-0.52,0.21-1.1,0.37-1.75,0.49c-0.65,0.12-1.33,0.18-2.02,0.18
            c-2.19,0-4.19-0.62-5.99-1.85C4.2,15.69,2.87,14.01,2,11.88c0.28-0.75,0.69-1.5,1.23-2.25s1.17-1.47,1.89-2.16L2.38,4.75
            l1.04-1.06l16.84,16.87L19.31,21.61z M12,15.63c0.18,0,0.37-0.02,0.57-0.06c0.21-0.04,0.38-0.08,0.53-0.14l-4.68-4.66
            c-0.06,0.16-0.1,0.34-0.13,0.53c-0.03,0.19-0.04,0.38-0.04,0.57c0,1.06,0.37,1.95,1.1,2.67S10.97,15.63,12,15.63z M18.45,16.62
            l-3.11-3.11c0.13-0.21,0.24-0.46,0.31-0.76c0.07-0.3,0.11-0.59,0.11-0.87c0-1.04-0.36-1.93-1.09-2.66
            C13.93,8.49,13.04,8.12,12,8.12c-0.28,0-0.56,0.03-0.85,0.1s-0.55,0.17-0.78,0.3L7.72,5.85C8.23,5.61,8.9,5.41,9.73,5.23
            c0.82-0.18,1.62-0.26,2.38-0.26c2.13,0,4.1,0.61,5.91,1.84s3.13,2.92,3.98,5.07c-0.37,0.96-0.86,1.84-1.48,2.64
            C19.9,15.32,19.21,16.02,18.45,16.62z M13.96,12.12l-2.27-2.27c0.29-0.13,0.61-0.18,0.95-0.13c0.34,0.04,0.64,0.18,0.91,0.42
            c0.25,0.26,0.42,0.55,0.52,0.86C14.16,11.3,14.13,11.68,13.96,12.12z"/>
</symbol>
<symbol id="eye_open" viewBox="0 0 24 24">
		<path d="M12,15.75c1.04,0,1.93-0.36,2.66-1.09c0.73-0.73,1.09-1.62,1.09-2.66s-0.36-1.93-1.09-2.66C13.93,8.61,13.04,8.25,12,8.25
			s-1.93,0.36-2.66,1.09C8.61,10.07,8.25,10.96,8.25,12s0.36,1.93,1.09,2.66C10.07,15.39,10.96,15.75,12,15.75z M12,14.27
			c-0.63,0-1.17-0.22-1.61-0.66C9.95,13.17,9.73,12.63,9.73,12c0-0.63,0.22-1.17,0.66-1.61c0.44-0.44,0.98-0.66,1.61-0.66
			c0.63,0,1.17,0.22,1.61,0.66c0.44,0.44,0.66,0.98,0.66,1.61c0,0.63-0.22,1.17-0.66,1.61C13.17,14.05,12.63,14.27,12,14.27z
			 M12,18.91c-2.22,0-4.22-0.64-6-1.92C4.21,15.71,2.88,14.05,2,12c0.88-2.05,2.21-3.71,4-4.99s3.78-1.92,6-1.92s4.22,0.64,6,1.92
			c1.78,1.28,3.11,2.94,4,4.99c-0.88,2.05-2.21,3.71-4,4.99C16.22,18.27,14.22,18.91,12,18.91z"/>
</symbol>
<symbol id="list" viewBox="0 0 24 24">
<path d="M2,18.06v-2.09h15.08v2.09H2z M2,13.06v-2.12h15.08v2.12H2z M2,8.03V5.94h15.08v2.09H2z M20.94,18.06
			c-0.3,0-0.55-0.1-0.75-0.3c-0.2-0.2-0.3-0.45-0.3-0.75s0.1-0.55,0.3-0.74c0.2-0.19,0.45-0.29,0.75-0.29c0.3,0,0.55,0.1,0.75,0.3
			c0.2,0.2,0.3,0.45,0.3,0.75c0,0.3-0.11,0.55-0.32,0.74C21.47,17.96,21.22,18.06,20.94,18.06z M20.94,13.06
			c-0.3,0-0.55-0.1-0.75-0.3c-0.2-0.2-0.3-0.45-0.3-0.75c0-0.3,0.1-0.55,0.3-0.75c0.2-0.2,0.45-0.3,0.75-0.3
			c0.3,0,0.55,0.1,0.75,0.3C21.9,11.45,22,11.7,22,12c0,0.3-0.11,0.55-0.32,0.75C21.47,12.96,21.22,13.06,20.94,13.06z M20.94,8.03
			c-0.3,0-0.55-0.1-0.75-0.3c-0.2-0.2-0.3-0.45-0.3-0.75c0-0.3,0.1-0.55,0.3-0.74c0.2-0.19,0.45-0.29,0.75-0.29
			c0.3,0,0.55,0.1,0.75,0.3C21.9,6.45,22,6.7,22,7c0,0.3-0.11,0.55-0.32,0.74C21.47,7.93,21.22,8.03,20.94,8.03z"/>
</symbol>
<symbol id="layers" viewBox="0 0 24 24">
	<path d="M11.97,22l-9.91-7.74L3.77,13l8.2,6.42L20.23,13l1.71,1.27L11.97,22z M11.97,17.45L2.06,9.71L11.97,2l9.94,7.71
			L11.97,17.45z"/>
</symbol>
<symbol id="user" viewBox="0 0 24 24">
<path d="M11.99,11.76c-1.13,0-2.06-0.36-2.78-1.09C8.48,9.95,8.12,9.03,8.12,7.89c0-1.15,0.36-2.08,1.09-2.81
			C9.93,4.36,10.86,4,11.99,4s2.06,0.36,2.8,1.09c0.73,0.72,1.1,1.66,1.1,2.81c0,1.13-0.37,2.06-1.1,2.78
			C14.05,11.4,13.12,11.76,11.99,11.76z M4.11,20v-2.57c0-0.65,0.17-1.21,0.5-1.69c0.33-0.48,0.76-0.85,1.3-1.1
			c1.07-0.49,2.1-0.85,3.09-1.09s1.99-0.35,3-0.35c1.02,0,2.03,0.12,3.01,0.37c0.98,0.24,2,0.6,3.06,1.07
			c0.55,0.24,1,0.59,1.33,1.07c0.34,0.48,0.51,1.05,0.51,1.71V20H4.11z"/>
</symbol>
<symbol id="user_setting" viewBox="0 0 24 24">
	<path d="M16.64,20.62l-0.24-1.64c-0.26-0.06-0.51-0.17-0.77-0.31c-0.26-0.14-0.47-0.31-0.65-0.48l-1.4,0.31l-0.72-1.25l1.18-1.09
			c-0.03-0.11-0.05-0.29-0.05-0.54c0-0.25,0.02-0.42,0.05-0.52l-1.18-1.11l0.72-1.23l1.4,0.31c0.18-0.18,0.39-0.34,0.65-0.49
			s0.51-0.26,0.77-0.33l0.24-1.64h1.57l0.27,1.64c0.24,0.06,0.49,0.17,0.76,0.33c0.27,0.15,0.49,0.32,0.66,0.49l1.38-0.31L22,13.99
			l-1.18,1.11c0.05,0.11,0.07,0.29,0.07,0.53c0,0.24-0.02,0.42-0.07,0.53L22,17.25l-0.72,1.25l-1.38-0.31
			c-0.18,0.18-0.4,0.34-0.66,0.48s-0.52,0.25-0.76,0.31l-0.27,1.64L16.64,20.62z M2,19.73V17.1c0-0.66,0.17-1.24,0.52-1.74
			c0.35-0.5,0.78-0.87,1.31-1.11c1.16-0.51,2.26-0.89,3.29-1.12c1.04-0.23,2.01-0.35,2.93-0.35h0.77c-0.48,0.95-0.7,2.15-0.66,3.61
			c0.04,1.46,0.4,2.57,1.07,3.34H2z M17.44,17.49c0.55,0,0.99-0.17,1.33-0.52c0.34-0.35,0.51-0.8,0.51-1.36
			c0-0.55-0.17-0.99-0.51-1.33c-0.34-0.34-0.78-0.51-1.33-0.51c-0.55,0-0.99,0.17-1.34,0.51c-0.35,0.34-0.52,0.78-0.52,1.33
			c0,0.56,0.17,1.02,0.52,1.36C16.45,17.32,16.89,17.49,17.44,17.49z M10.06,11.31c-1.16,0-2.11-0.37-2.85-1.11
			C6.47,9.46,6.1,8.51,6.1,7.36c0-1.17,0.37-2.13,1.11-2.87s1.69-1.11,2.85-1.11s2.11,0.37,2.86,1.11c0.75,0.74,1.12,1.7,1.12,2.87
			c0,1.16-0.37,2.11-1.12,2.85C12.17,10.94,11.22,11.31,10.06,11.31z"/>
</symbol>
<symbol id="user_add" viewBox="0 0 24 24">
<path d="M18.06,13.4v-2.97h-2.97V8.89h2.97V5.92h1.57v2.97h2.95v1.54h-2.95v2.97H18.06z M9.24,11.77c-1.12,0-2.04-0.36-2.76-1.08
			S5.4,9.05,5.4,7.93c0-1.14,0.36-2.07,1.08-2.78C7.2,4.43,8.12,4.07,9.24,4.07s2.05,0.36,2.77,1.08c0.73,0.72,1.09,1.65,1.09,2.78
			c0,1.12-0.36,2.04-1.09,2.76C11.29,11.41,10.36,11.77,9.24,11.77z M1.42,19.93v-2.55c0-0.61,0.16-1.16,0.47-1.65
			c0.31-0.49,0.75-0.86,1.31-1.11c1.19-0.53,2.25-0.9,3.18-1.11c0.94-0.21,1.89-0.32,2.85-0.32c0.98,0,1.94,0.11,2.87,0.32
			c0.93,0.21,1.99,0.58,3.17,1.11c0.56,0.25,1,0.62,1.32,1.1c0.32,0.48,0.48,1.04,0.48,1.66v2.55H1.42z"/>
</symbol>
<symbol id="block" viewBox="0 0 24 24">
<path d="M14.69,11.46L9.91,6.7c0.27-0.16,0.59-0.31,0.95-0.45c0.36-0.14,0.74-0.21,1.12-0.21c0.97,0,1.77,0.33,2.41,0.98
			s0.97,1.46,0.97,2.42c0,0.39-0.06,0.78-0.18,1.18C15.06,11.04,14.9,11.31,14.69,11.46z M5.84,17.34c1.01-0.63,1.99-1.11,2.94-1.45
			s2.02-0.51,3.21-0.51c0.56,0,1.1,0.04,1.6,0.12c0.51,0.08,0.91,0.18,1.22,0.31l-3.02-3.02c-0.92-0.03-1.65-0.33-2.21-0.88
			c-0.55-0.55-0.86-1.26-0.9-2.11L5.69,6.83C5.11,7.56,4.67,8.36,4.36,9.2c-0.31,0.84-0.46,1.78-0.46,2.81
			c0,0.95,0.15,1.86,0.46,2.73C4.67,15.61,5.16,16.48,5.84,17.34z M18.33,17.17c0.53-0.63,0.95-1.38,1.27-2.26
			c0.31-0.88,0.47-1.85,0.47-2.91c0-2.43-0.74-4.38-2.22-5.86c-1.48-1.48-3.43-2.22-5.86-2.22c-1.09,0-2.06,0.16-2.9,0.47
			C8.26,4.71,7.5,5.14,6.83,5.67L18.33,17.17z M11.99,22c-1.4,0-2.71-0.26-3.92-0.77C6.85,20.71,5.8,20.01,4.9,19.1
			c-0.9-0.9-1.61-1.96-2.12-3.17S2,13.41,2,12.01s0.26-2.71,0.77-3.92s1.22-2.27,2.11-3.17s1.95-1.61,3.16-2.14
			C9.26,2.26,10.56,2,11.96,2c1.42,0,2.73,0.26,3.94,0.78c1.21,0.52,2.27,1.23,3.17,2.14c0.9,0.9,1.61,1.96,2.14,3.17
			C21.74,9.31,22,10.61,22,12.01s-0.26,2.71-0.78,3.92c-0.52,1.21-1.23,2.27-2.14,3.17c-0.9,0.9-1.96,1.61-3.17,2.12
			C14.69,21.74,13.39,22,11.99,22z"/>
</symbol>
<symbol id="unblock" viewBox="0 0 24 24">
		<path d="M5.81,17.3c1.01-0.64,2.01-1.12,2.99-1.44c0.98-0.31,2.04-0.47,3.18-0.47s2.21,0.16,3.21,0.48s1.99,0.8,2.99,1.42
			c0.69-0.88,1.18-1.75,1.46-2.59c0.28-0.84,0.42-1.74,0.42-2.69c0-2.28-0.78-4.2-2.33-5.75s-3.47-2.33-5.75-2.33
			s-4.2,0.78-5.75,2.33s-2.33,3.47-2.33,5.75c0,0.95,0.14,1.85,0.43,2.69C4.63,15.55,5.12,16.41,5.81,17.3z M11.99,12.83
			c-0.97,0-1.77-0.33-2.41-0.98c-0.64-0.65-0.97-1.45-0.97-2.4c0-0.97,0.33-1.77,0.98-2.42c0.65-0.65,1.45-0.98,2.4-0.98
			c0.97,0,1.77,0.33,2.41,0.99s0.97,1.46,0.97,2.41c0,0.95-0.33,1.75-0.98,2.4C13.74,12.51,12.94,12.83,11.99,12.83z M11.99,22
			c-1.38,0-2.68-0.26-3.9-0.78s-2.28-1.24-3.18-2.15C4,18.16,3.29,17.1,2.77,15.88S2,13.38,2,12.01c0-1.38,0.26-2.68,0.78-3.9
			s1.24-2.27,2.15-3.17S6.9,3.33,8.12,2.8C9.33,2.27,10.63,2,12.01,2c1.37,0,2.66,0.27,3.87,0.8s2.27,1.25,3.17,2.15
			c0.9,0.9,1.62,1.96,2.15,3.17c0.53,1.21,0.8,2.51,0.8,3.9c0,1.37-0.27,2.66-0.8,3.87s-1.25,2.28-2.15,3.18
			c-0.9,0.91-1.96,1.62-3.17,2.15S13.37,22,11.99,22z"/>
</symbol>
<symbol id="users" viewBox="0 0 24 24">
<path d="M2,19.29v-2.4c0-0.57,0.15-1.09,0.44-1.55c0.29-0.46,0.7-0.81,1.23-1.04c1.08-0.47,2.07-0.81,2.95-1.02
			c0.88-0.21,1.79-0.32,2.73-0.32c0.95,0,1.86,0.1,2.74,0.31c0.87,0.21,1.85,0.55,2.93,1.03c0.51,0.22,0.92,0.56,1.23,1.02
			c0.31,0.46,0.46,0.99,0.46,1.57v2.4H2z M18.15,19.29v-2.37c0-0.94-0.23-1.72-0.69-2.34c-0.46-0.62-1.09-1.17-1.88-1.64
			c0.95,0.13,1.85,0.31,2.69,0.53c0.84,0.22,1.53,0.47,2.05,0.75c0.51,0.28,0.92,0.66,1.22,1.13c0.3,0.48,0.45,1.01,0.45,1.62v2.33
			H18.15z M9.34,11.62c-1.01,0-1.84-0.32-2.48-0.97S5.89,9.18,5.89,8.16c0-1.03,0.32-1.86,0.97-2.49s1.47-0.96,2.48-0.96
			c1.03,0,1.86,0.32,2.49,0.96c0.64,0.64,0.96,1.46,0.96,2.47c0,1.03-0.32,1.86-0.96,2.51C11.2,11.29,10.37,11.62,9.34,11.62z
			 M17.71,8.14c0,1.03-0.32,1.86-0.97,2.51c-0.64,0.64-1.47,0.97-2.48,0.97c-0.18,0-0.36-0.01-0.55-0.04s-0.37-0.07-0.55-0.13
			c0.37-0.4,0.64-0.87,0.82-1.42s0.27-1.17,0.27-1.86c0-0.69-0.09-1.3-0.27-1.84s-0.46-1.01-0.82-1.44c0.16-0.06,0.34-0.1,0.54-0.13
			c0.2-0.03,0.38-0.04,0.56-0.04c1.01,0,1.84,0.32,2.48,0.97C17.39,6.33,17.71,7.15,17.71,8.14z"/>
</symbol>
<symbol id="user_list" viewBox="0 0 24 24">
		<path d="M15.52,14.02c-0.95,0-1.74-0.32-2.37-0.96c-0.63-0.64-0.94-1.43-0.94-2.39c0-0.97,0.32-1.77,0.96-2.4
			c0.64-0.63,1.43-0.94,2.39-0.94c0.95,0,1.75,0.32,2.39,0.96c0.64,0.64,0.96,1.43,0.96,2.39c0,0.97-0.32,1.77-0.96,2.4
			C17.29,13.7,16.49,14.02,15.52,14.02z M9.09,20.88v-2.02c0-0.37,0.09-0.73,0.27-1.07c0.18-0.34,0.42-0.59,0.73-0.74
			c0.8-0.56,1.67-0.98,2.6-1.25c0.94-0.27,1.89-0.41,2.86-0.41c0.95,0,1.9,0.15,2.83,0.45c0.94,0.3,1.8,0.7,2.6,1.21
			c0.29,0.2,0.53,0.46,0.73,0.78c0.2,0.31,0.29,0.66,0.29,1.03v2.02L9.09,20.88z M2,14.24V12.2h7.76v2.04H2z M2,5.14V3.12h11.91
			v2.02L2,5.14z M10.8,9.68H2V7.66h9.64c-0.2,0.29-0.38,0.6-0.52,0.94C10.98,8.95,10.87,9.3,10.8,9.68z"/>
</symbol>
<symbol id="shield" viewBox="0 0 24 24">
<path d="M11.99,22c-2.35-0.59-4.27-1.95-5.78-4.06c-1.51-2.11-2.27-4.43-2.27-6.95V5.01L11.99,2l8.07,3.01v5.98
			c0,2.52-0.76,4.84-2.28,6.95C16.27,20.05,14.33,21.41,11.99,22z M11.99,20.02c1.65-0.59,3.03-1.62,4.13-3.08
			c1.1-1.46,1.75-3.11,1.94-4.94h-6.07V4.07L5.84,6.36v4.63c0,0.18,0,0.34,0.01,0.49c0.01,0.15,0.03,0.33,0.06,0.52h6.07V20.02z"/>
</symbol>
<symbol id="protection" viewBox="0 0 24 24">
	<path d="M11.99,22c-2.35-0.59-4.27-1.95-5.78-4.06s-2.27-4.43-2.27-6.95V5.01L11.99,2l8.07,3.01v5.98c0,2.52-0.76,4.84-2.28,6.95
			C16.27,20.05,14.33,21.41,11.99,22z"/>
</symbol>
<symbol id="protection_yes" viewBox="0 0 24 24">
<path d="M10.93,15.13l5.61-5.61l-1.13-1.11L11,12.82l-2.46-2.43l-1.16,1.16L10.93,15.13z M11.99,22
			c-2.35-0.59-4.27-1.95-5.78-4.06s-2.27-4.43-2.27-6.95V5.01L11.99,2l8.07,3.01v5.98c0,2.52-0.76,4.84-2.28,6.95
			C16.27,20.05,14.33,21.41,11.99,22z"/>
</symbol>
<symbol id="protection_user" viewBox="0 0 24 24">
<path d="M16.3,17.07c0.42,0,0.77-0.15,1.06-0.46c0.29-0.3,0.43-0.67,0.43-1.08c0-0.42-0.15-0.77-0.45-1.06
			c-0.3-0.29-0.65-0.43-1.05-0.43c-0.42,0-0.78,0.14-1.08,0.43c-0.3,0.29-0.46,0.64-0.46,1.06s0.15,0.78,0.46,1.08
			C15.52,16.91,15.88,17.07,16.3,17.07z M16.27,20.07c0.53,0,1.01-0.11,1.44-0.32c0.43-0.22,0.8-0.53,1.11-0.95
			c-0.42-0.22-0.83-0.4-1.25-0.52c-0.42-0.12-0.85-0.18-1.3-0.18s-0.89,0.06-1.31,0.18c-0.43,0.12-0.84,0.29-1.24,0.52
			c0.3,0.42,0.67,0.73,1.1,0.95C15.24,19.97,15.73,20.07,16.27,20.07z M16.32,21.64c-1.25,0-2.32-0.45-3.2-1.34
			c-0.88-0.89-1.32-1.95-1.32-3.16c0-1.25,0.44-2.32,1.32-3.21c0.88-0.89,1.95-1.34,3.2-1.34c1.24,0,2.3,0.45,3.19,1.34
			c0.89,0.89,1.34,1.96,1.34,3.21c0,1.22-0.45,2.27-1.34,3.16C18.62,21.19,17.56,21.64,16.32,21.64z M11.19,22
			c-2.31-0.55-4.23-1.85-5.75-3.91S3.16,13.66,3.16,11V5.01L11.19,2l8.06,3.01v6.93c-0.47-0.24-0.94-0.43-1.42-0.58
			c-0.48-0.14-0.99-0.22-1.52-0.22c-1.65,0-3.06,0.59-4.22,1.76c-1.16,1.17-1.74,2.58-1.74,4.24c0,0.82,0.18,1.62,0.54,2.42
			c0.36,0.79,0.88,1.47,1.55,2.03c-0.21,0.1-0.42,0.17-0.64,0.23S11.39,21.94,11.19,22z"/>
</symbol>
<symbol id="protection_no" viewBox="0 0 24 24">
	<path d="M19.21,16.26L7.05,4.09L12.67,2l7.88,2.92v5.84c0,0.97-0.12,1.93-0.36,2.86C19.95,14.55,19.62,15.43,19.21,16.26z
			 M20.48,22l-3.22-3.18c-0.67,0.69-1.39,1.26-2.15,1.72c-0.76,0.45-1.57,0.78-2.44,0.99c-2.34-0.64-4.23-1.97-5.68-3.99
			s-2.18-4.28-2.18-6.79V6.33l-2.4-2.4l1.13-1.11l18.05,18.05L20.48,22z"/>
</symbol>
<symbol id="locked" viewBox="0 0 24 24">
		<path d="M6.09,22c-0.51,0-0.94-0.18-1.3-0.54s-0.53-0.79-0.53-1.28v-9.81c0-0.51,0.18-0.95,0.53-1.31S5.58,8.5,6.09,8.5h1.37V6.58
			c0-1.28,0.44-2.36,1.32-3.25S10.72,2,11.99,2c1.27,0,2.34,0.44,3.22,1.33c0.88,0.89,1.32,1.97,1.32,3.25V8.5h1.37
			c0.51,0,0.95,0.18,1.31,0.54s0.54,0.8,0.54,1.31v9.81c0,0.49-0.18,0.92-0.54,1.28C18.84,21.82,18.4,22,17.89,22H6.09z
			 M11.99,17.05c0.49,0,0.91-0.17,1.26-0.51c0.35-0.34,0.52-0.75,0.52-1.23c0-0.46-0.17-0.88-0.52-1.26s-0.77-0.57-1.26-0.57
			c-0.49,0-0.91,0.19-1.26,0.57c-0.35,0.38-0.52,0.8-0.52,1.26c0,0.48,0.17,0.89,0.52,1.23C11.07,16.88,11.49,17.05,11.99,17.05z
			 M9.28,8.5h5.42V6.58c0-0.77-0.26-1.42-0.79-1.96c-0.52-0.53-1.17-0.8-1.92-0.8c-0.76,0-1.4,0.27-1.92,0.8
			C9.54,5.16,9.28,5.81,9.28,6.58V8.5z"/>
</symbol>
<symbol id="unlocked" viewBox="0 0 24 24">
	<path d="M6.09,8.5h8.61V6.58c0-0.77-0.26-1.42-0.79-1.96s-1.17-0.8-1.92-0.8c-0.76,0-1.4,0.27-1.92,0.8
			C9.54,5.16,9.28,5.81,9.28,6.58H7.45c0-1.28,0.44-2.36,1.32-3.25S10.72,2,11.99,2c1.27,0,2.34,0.44,3.22,1.33
			c0.88,0.89,1.32,1.97,1.32,3.25V8.5h1.37c0.51,0,0.95,0.18,1.31,0.54s0.54,0.8,0.54,1.31v9.81c0,0.49-0.18,0.92-0.54,1.28
			C18.84,21.82,18.4,22,17.89,22H6.09c-0.51,0-0.94-0.18-1.3-0.54s-0.53-0.79-0.53-1.28v-9.81c0-0.51,0.18-0.95,0.53-1.31
			S5.58,8.5,6.09,8.5z M11.99,17.05c0.49,0,0.91-0.17,1.26-0.51c0.35-0.34,0.52-0.75,0.52-1.23c0-0.46-0.17-0.88-0.52-1.26
			s-0.77-0.57-1.26-0.57c-0.49,0-0.91,0.19-1.26,0.57c-0.35,0.38-0.52,0.8-0.52,1.26c0,0.48,0.17,0.89,0.52,1.23
			C11.07,16.88,11.49,17.05,11.99,17.05z"/>
</symbol>
<symbol id="key" viewBox="0 0 24 24">
		<path d="M7.58,17.58c-1.55,0-2.86-0.54-3.95-1.63C2.54,14.86,2,13.55,2,12s0.54-2.86,1.63-3.95s2.41-1.63,3.95-1.63
			c1.35,0,2.49,0.37,3.4,1.11c0.91,0.74,1.55,1.62,1.92,2.64H22v3.66h-2.34v3.6h-3.07v-3.6h-3.69c-0.37,1.02-1.01,1.89-1.92,2.64
			C10.07,17.21,8.94,17.58,7.58,17.58z M7.58,13.63c0.47,0,0.86-0.15,1.17-0.46s0.46-0.7,0.46-1.17c0-0.47-0.15-0.86-0.46-1.17
			c-0.31-0.31-0.7-0.46-1.17-0.46c-0.46,0-0.84,0.15-1.16,0.46c-0.32,0.31-0.47,0.7-0.47,1.17c0,0.46,0.15,0.84,0.46,1.16
			C6.72,13.48,7.11,13.63,7.58,13.63z"/>
</symbol>
<symbol id="linked" viewBox="0 0 24 24">
	<path d="M11.12,17.17H7.16c-1.43,0-2.65-0.5-3.66-1.51C2.5,14.66,2,13.44,2,12.01s0.5-2.65,1.51-3.67s2.22-1.52,3.66-1.52h3.96
			v1.93H7.16c-0.9,0-1.67,0.31-2.3,0.94s-0.95,1.4-0.95,2.32c0,0.9,0.32,1.67,0.95,2.3c0.64,0.64,1.4,0.95,2.3,0.95h3.96V17.17z
			 M8.01,12.81v-1.59h7.96v1.59H8.01z M12.86,17.17v-1.91h3.96c0.9,0,1.67-0.31,2.3-0.94c0.64-0.63,0.95-1.4,0.95-2.32
			c0-0.9-0.32-1.67-0.95-2.3c-0.64-0.64-1.4-0.95-2.3-0.95h-3.96V6.83h3.96c1.43,0,2.65,0.51,3.67,1.52
			C21.49,9.36,22,10.58,22,12.01s-0.51,2.65-1.52,3.66c-1.01,1.01-2.24,1.51-3.67,1.51H12.86z"/>
</symbol>
<symbol id="pencil" viewBox="0 0 24 24">
<g>
					<path d="M20.73,6.4c-0.09,0.38-0.33,0.65-0.6,0.91c-0.47,0.45-0.93,0.92-1.39,1.38c-0.04,0.04-0.09,0.09-0.12,0.12
						c-1.18-1.18-2.36-2.36-3.55-3.55c0.02-0.02,0.06-0.06,0.09-0.1c0.45-0.45,0.89-0.89,1.34-1.34c0.7-0.7,1.64-0.7,2.34,0
						c0.44,0.43,0.86,0.87,1.3,1.3c0.27,0.26,0.5,0.53,0.58,0.9C20.73,6.15,20.73,6.28,20.73,6.4z"/>
					<path d="M3.57,20.69c-0.3-0.19-0.35-0.28-0.27-0.63c0.28-1.27,0.57-2.53,0.85-3.8c0-0.02,0.01-0.04,0.01-0.03
						c1.16,1.16,2.33,2.33,3.5,3.49C7.35,19.81,7,19.89,6.65,19.98c-0.94,0.23-1.88,0.46-2.83,0.68c-0.03,0.01-0.05,0.02-0.08,0.03
						C3.69,20.69,3.63,20.69,3.57,20.69z"/>
					<path d="M8.66,18.71c-1.16-1.15-2.33-2.32-3.49-3.48c2.99-2.99,5.98-5.98,8.96-8.96c1.15,1.15,2.32,2.32,3.48,3.48
						C14.65,12.72,11.66,15.71,8.66,18.71z"/>
				</g>
</symbol>
<symbol id="loading" viewBox="0 0 24 24">
	<path d="M19.28,9.8c0.74,2.84-0.22,6.02-2.83,7.94c-2.75,2.02-6.65,1.89-9.25-0.32c-3.48-2.95-3.53-8.17-0.31-11.2
    C7.6,5.56,8.4,5.05,9.25,4.72c0.52-0.21,0.84-0.72,0.78-1.28C9.95,2.6,9.09,2.1,8.31,2.41C6.52,3.12,4.89,4.37,3.67,6.18
    c-2.24,3.33-2.25,7.57-0.05,10.92c3.52,5.36,10.8,6.05,15.26,1.86c2.77-2.6,3.71-6.4,2.81-9.83c-0.2-0.74-1.04-1.1-1.73-0.77l0,0
    C19.41,8.62,19.13,9.22,19.28,9.8z"/>
</symbol>
<symbol id="no_record" viewBox="0 0 24 24">
<g>
	<g>
		<path d="M16.23,12.12c-2.72,0-4.92,2.2-4.92,4.92s2.2,4.92,4.92,4.92s4.92-2.2,4.92-4.92S18.94,12.12,16.23,12.12z M18.36,18.49
			l-0.7,0.7l-1.45-1.45l-1.45,1.45l-0.7-0.7l1.45-1.45l-1.45-1.45l0.7-0.7l1.45,1.45l1.45-1.45l0.7,0.7l-1.45,1.45L18.36,18.49z"/>
	</g>
    <path d="M10.83,20.5H4.35v-9.62v-0.1V8.15V3.5h8.27v4.65h4.73v2.72c0.27,0.05,0.52,0.12,0.77,0.2c0.25,0.08,0.49,0.17,0.73,0.27
        V7.47L13.38,2H4.35C3.95,2,3.6,2.15,3.3,2.45C3,2.75,2.85,3.1,2.85,3.5v17c0,0.4,0.15,0.75,0.45,1.05C3.6,21.85,3.95,22,4.35,22
        h7.8c-0.27-0.22-0.51-0.45-0.72-0.7C11.21,21.05,11.01,20.78,10.83,20.5z"/>
    <path d="M6.83,16.25v1.5H9.9c-0.03-0.23-0.05-0.48-0.04-0.74c0.01-0.26,0.03-0.51,0.06-0.76H6.83z"/>
    <path d="M11.68,12.7c0.25-0.25,0.52-0.48,0.8-0.7H6.83v1.5H11C11.2,13.22,11.43,12.95,11.68,12.7z"/>
</g>
</symbol>
<symbol id="information" viewBox="0 0 24 24">
	<path d="M11.3,17h1.5v-6h-1.5V17z M12,9.1c0.2,0,0.4-0.1,0.6-0.2s0.2-0.3,0.2-0.6s-0.1-0.4-0.2-0.6c-0.2-0.2-0.4-0.3-0.6-0.3
    s-0.4,0.1-0.6,0.2s-0.2,0.4-0.2,0.6s0.1,0.4,0.2,0.6C11.6,9.1,11.8,9.1,12,9.1z M12,22c-1.4,0-2.7-0.3-3.9-0.8
    c-1.2-0.5-2.3-1.2-3.2-2.1s-1.6-2-2.2-3.2S2,13.4,2,12c0-1.4,0.3-2.7,0.8-3.9S4,5.8,4.9,4.9s2-1.6,3.2-2.1S10.6,2,12,2
    c1.4,0,2.7,0.3,3.9,0.8s2.3,1.2,3.2,2.1c0.9,0.9,1.6,2,2.1,3.2C21.7,9.3,22,10.6,22,12c0,1.4-0.3,2.7-0.8,3.9
    c-0.5,1.2-1.2,2.3-2.1,3.2s-2,1.6-3.2,2.1C14.7,21.7,13.4,22,12,22z"/>
</symbol>
<symbol id="link" viewBox="0 0 24 24">
<g>
<path d="M10.7,13.6c0.4,0.4,0.4,1,0,1.4c-0.4,0.4-1,0.4-1.4,0c-2-1.9-2-5.1,0-7.1l0,0l3.5-3.5c1.9-1.9,5.1-1.9,7.1,0s1.9,5.1,0,7.1
	L18.4,13c0-0.8-0.1-1.6-0.4-2.4l0.5-0.5c1.2-1.2,1.2-3.1,0-4.2c-1.2-1.2-3.1-1.2-4.2,0l-3.5,3.5C9.6,10.5,9.6,12.4,10.7,13.6
	 M13.6,9.4C14,9,14.6,9,15,9.4c2,1.9,2,5.1,0,7.1l0,0L11.4,20c-1.9,1.9-5.1,1.9-7.1,0s-1.9-5.1,0-7.1l1.5-1.5c0,0.8,0.1,1.6,0.4,2.4
	l-0.5,0.5c-1.2,1.2-1.2,3.1,0,4.2c1.2,1.2,3.1,1.2,4.2,0l3.5-3.5c1.2-1.2,1.2-3.1,0-4.2C13.2,10.4,13.2,9.8,13.6,9.4z"/>
<path d="M10.7,13.6c0.4,0.4,0.4,1,0,1.4c-0.4,0.4-1,0.4-1.4,0c-2-1.9-2-5.1,0-7.1l0,0l3.5-3.5c1.9-1.9,5.1-1.9,7.1,0s1.9,5.1,0,7.1
	L18.4,13c0-0.8-0.1-1.6-0.4-2.4l0.5-0.5c1.2-1.2,1.2-3.1,0-4.2c-1.2-1.2-3.1-1.2-4.2,0l-3.5,3.5C9.6,10.6,9.6,12.5,10.7,13.6
	 M13.6,9.4C14,9,14.6,9,15,9.4c2,1.9,2,5.1,0,7.1l0,0L11.4,20C9.5,22,6.3,22,4.4,20s-1.9-5.1,0-7.1l1.5-1.5c0,0.8,0.1,1.6,0.4,2.4
	l-0.5,0.5c-1.2,1.2-1.2,3.1,0,4.2c1.2,1.2,3.1,1.2,4.2,0l3.5-3.5c1.2-1.2,1.2-3.1,0-4.2C13.2,10.4,13.2,9.8,13.6,9.4z"/>
</g>
</symbol>
<symbol id="domain" viewBox="0 0 24 24">
<path d="M16.41,14c0.08-0.66,0.14-1.32,0.14-2s-0.06-1.34-0.14-2h3.38c0.16,0.64,0.26,1.31,0.26,2s-0.1,1.36-0.26,2 M14.64,19.56
	c0.6-1.11,1.06-2.31,1.38-3.56h2.95C18.01,17.65,16.48,18.93,14.64,19.56 M14.39,14H9.71c-0.1-0.66-0.16-1.32-0.16-2
	s0.06-1.35,0.16-2h4.68c0.09,0.65,0.16,1.32,0.16,2S14.48,13.34,14.39,14 M12.05,19.96c-0.83-1.2-1.5-2.53-1.91-3.96h3.82
	C13.55,17.43,12.88,18.76,12.05,19.96 M8.05,8H5.13c0.95-1.66,2.49-2.94,4.32-3.56C8.85,5.55,8.4,6.75,8.05,8 M5.13,16h2.92
	c0.35,1.25,0.8,2.45,1.4,3.56C7.62,18.93,6.08,17.65,5.13,16 M4.31,14c-0.16-0.64-0.26-1.31-0.26-2s0.1-1.36,0.26-2h3.38
	c-0.08,0.66-0.14,1.32-0.14,2s0.06,1.34,0.14,2 M12.05,4.03c0.83,1.2,1.5,2.54,1.91,3.97h-3.82C10.55,6.57,11.22,5.23,12.05,4.03
	 M18.97,8h-2.95c-0.32-1.25-0.78-2.45-1.38-3.56C16.48,5.07,18.01,6.34,18.97,8 M12.05,2c-5.53,0-10,4.5-10,10c0,5.52,4.48,10,10,10
	s10-4.48,10-10S17.57,2,12.05,2z"/>
</symbol>
<symbol id="file" viewBox="0 0 24 24">
  <path d="m6.26,21.5c-.49,0-.92-.18-1.27-.53-.35-.35-.53-.78-.53-1.27V4.47c0-.5.18-.92.53-1.28.35-.36.78-.53,1.27-.53h8.23l5.17,5.17v11.87c0,.49-.18.92-.53,1.27-.36.35-.78.53-1.28.53,0,0-11.59,0-11.59,0Zm7.29-12.8v-4.23h-7.29v15.22h11.59v-11h-4.3Zm-7.29-4.23v4.23-4.23,15.22V4.47Z"/>
</symbol>
<symbol id="folder2" viewBox="0 0 24 24">
  <path d="m4.27,19.84c-.49,0-.92-.18-1.27-.54-.36-.36-.53-.78-.53-1.26V6.41c0-.48.18-.91.53-1.27.36-.37.78-.55,1.27-.55h6.15l1.51,1.52h7.61c.48,0,.91.18,1.27.54.37.36.55.78.55,1.26v10.11c0,.48-.18.9-.55,1.26-.37.36-.79.54-1.27.54,0,0-15.27,0-15.27,0Zm0-1.81h15.27V7.92h-8.36l-1.51-1.51h-5.4v11.62Zm0,0V6.41s0,11.62,0,11.62Z"/>
</symbol>
<symbol id="upload" viewBox="0 0 24 24">
  <path d="m4.26,19.84c-.49,0-.92-.18-1.27-.54-.36-.36-.53-.78-.53-1.26V6.4c0-.48.18-.91.53-1.27.36-.37.78-.55,1.27-.55h6.15l1.51,1.52h7.62c.48,0,.91.18,1.27.54.37.36.55.78.55,1.26v10.12c0,.48-.18.9-.55,1.26-.37.36-.79.54-1.27.54,0,0-15.28,0-15.28,0Zm0-1.81h15.28V7.91h-8.37l-1.51-1.51h-5.4v11.63Zm0,0V6.4s0,11.63,0,11.63Zm6.83-1.2h1.63v-4.56l1.39,1.39,1.14-1.13-3.34-3.34-3.34,3.34,1.14,1.13,1.39-1.39v4.56Z"/>
</symbol>
</defs>
</svg>    



