<svg width="51" height="51" viewBox="0 0 51 51" fill="none" xmlns="http://www.w3.org/2000/svg">
<path d="M26.9266 6.00861L30.3006 16.3926C30.6352 17.4227 31.5951 18.1201 32.6782 18.1201L43.5966 18.1201C45.0497 18.1201 45.6538 19.9795 44.4783 20.8336L35.6451 27.2513C34.7689 27.8879 34.4022 29.0163 34.7369 30.0463L38.1109 40.4303C38.5599 41.8123 36.9782 42.9615 35.8026 42.1074L26.9695 35.6897C26.0932 35.0531 24.9068 35.0531 24.0305 35.6897L15.1974 42.1074C14.0218 42.9615 12.4401 41.8123 12.8891 40.4303L16.2631 30.0463C16.5978 29.0163 16.2311 27.8879 15.3549 27.2513L6.52175 20.8336C5.34618 19.9795 5.95034 18.1201 7.40342 18.1201L18.3218 18.1201C19.4049 18.1201 20.3648 17.4227 20.6994 16.3926L24.0734 6.00861C24.5224 4.62664 26.4776 4.62664 26.9266 6.00861Z" stroke="#293FE6"/>
<path fill-rule="evenodd" clip-rule="evenodd" d="M51 0H0V51H51V0ZM27.4021 5.8541C26.8034 4.01148 24.1966 4.01148 23.5979 5.8541L20.2239 16.2381C19.9562 17.0621 19.1883 17.6201 18.3218 17.6201L7.40342 17.6201C5.46598 17.6201 4.66043 20.0993 6.22785 21.2381L15.061 27.6558C15.762 28.1651 16.0553 29.0678 15.7876 29.8918L12.4136 40.2758C11.8149 42.1185 13.9238 43.6507 15.4913 42.5119L24.3244 36.0942C25.0254 35.5849 25.9746 35.5849 26.6756 36.0942L35.5087 42.5119C37.0762 43.6507 39.1851 42.1185 38.5864 40.2758L35.2124 29.8918C34.9447 29.0678 35.238 28.1651 35.939 27.6558L44.7721 21.2381C46.3396 20.0993 45.534 17.6201 43.5966 17.6201L32.6782 17.6201C31.8117 17.6201 31.0438 17.0621 30.7761 16.2381L27.4021 5.8541Z" fill="#FAFAFA"/>
</svg>
